<svg id="web-designer-building-website" xmlns="http://www.w3.org/2000/svg" viewBox="0 0 2876.17 2307.66"><defs><style>.cls-1,.cls-10,.cls-11,.cls-13,.cls-4,.cls-5,.cls-6,.cls-7,.cls-8,.cls-9{fill:none;}.cls-1,.cls-10,.cls-11,.cls-12,.cls-13,.cls-2,.cls-3,.cls-4,.cls-5,.cls-6,.cls-7,.cls-8,.cls-9{stroke:#1a1a1a;stroke-linecap:round;stroke-linejoin:round;}.cls-1,.cls-10,.cls-12,.cls-13,.cls-3,.cls-4,.cls-5,.cls-6,.cls-7,.cls-8,.cls-9{stroke-width:4.03px;}.cls-2{fill:#1c0311;stroke-width:2.02px;}.cls-3{fill:#fff;}.cls-4{stroke-dasharray:25.14 25.14;}.cls-5{stroke-dasharray:23.09 23.09;}.cls-6{stroke-dasharray:23.16 23.16;}.cls-7{stroke-dasharray:21.59 21.59;}.cls-8{stroke-dasharray:23.62 23.62;}.cls-9{stroke-dasharray:22.12 22.12;}.cls-10{stroke-dasharray:24.06 24.06;}.cls-11{stroke-width:6.05px;}.cls-12{fill:#54cafa;}.cls-13{stroke-dasharray:24.2;}</style></defs><polyline class="cls-1" points="1871.83 563.25 2386.13 563.25 2386.13 436.45"/><path class="cls-2" d="M1794.13,1H518.33a114.65,114.65,0,0,0-113.8,101h1503.3A114.48,114.48,0,0,0,1794.13,1Z"/><circle class="cls-3" cx="549.13" cy="51.45" r="13.5"/><circle class="cls-3" cx="631.03" cy="51.45" r="13.5"/><circle class="cls-3" cx="712.93" cy="51.45" r="13.5"/><path class="cls-3" d="M404.53,102a122.6,122.6,0,0,0-.8,13.6v750.6a114.59,114.59,0,0,0,114.6,114.6h1275.8a114.59,114.59,0,0,0,114.6-114.6V115.65a121.18,121.18,0,0,0-.8-13.6H404.53Z"/><polyline class="cls-1" points="1091.53 562.95 1091.53 575.05 1079.43 575.05"/><line class="cls-4" x1="1054.33" y1="575.05" x2="513.93" y2="575.05"/><polyline class="cls-1" points="501.33 575.05 489.23 575.05 489.23 562.95"/><line class="cls-5" x1="489.23" y1="539.85" x2="489.23" y2="182.05"/><polyline class="cls-1" points="489.23 170.45 489.23 158.35 501.33 158.35"/><line class="cls-4" x1="526.53" y1="158.35" x2="1066.93" y2="158.35"/><polyline class="cls-1" points="1079.43 158.35 1091.53 158.35 1091.53 170.45"/><line class="cls-5" x1="1091.53" y1="193.55" x2="1091.53" y2="551.45"/><polyline class="cls-1" points="1604.53 562.95 1604.53 575.05 1592.53 575.05"/><line class="cls-6" x1="1569.33" y1="575.05" x2="1164.03" y2="575.05"/><polyline class="cls-1" points="1152.53 575.05 1140.43 575.05 1140.43 562.95"/><line class="cls-5" x1="1140.43" y1="539.85" x2="1140.43" y2="182.05"/><polyline class="cls-1" points="1140.43 170.45 1140.43 158.35 1152.53 158.35"/><line class="cls-6" x1="1175.63" y1="158.35" x2="1580.93" y2="158.35"/><polyline class="cls-1" points="1592.53 158.35 1604.53 158.35 1604.53 170.45"/><line class="cls-5" x1="1604.53" y1="193.55" x2="1604.53" y2="551.45"/><polyline class="cls-1" points="1836.63 902.75 1836.63 914.85 1824.53 914.85"/><line class="cls-7" x1="1803.03" y1="914.85" x2="1684.23" y2="914.85"/><polyline class="cls-1" points="1673.43 914.85 1661.33 914.85 1661.33 902.75"/><line class="cls-8" x1="1661.33" y1="879.15" x2="1661.33" y2="182.25"/><polyline class="cls-1" points="1661.33 170.45 1661.33 158.35 1673.43 158.35"/><line class="cls-7" x1="1695.03" y1="158.35" x2="1813.73" y2="158.35"/><polyline class="cls-1" points="1824.53 158.35 1836.63 158.35 1836.63 170.45"/><line class="cls-8" x1="1836.63" y1="194.05" x2="1836.63" y2="890.95"/><polyline class="cls-1" points="1091.53 886.85 1091.53 898.95 1079.43 898.95"/><line class="cls-4" x1="1054.33" y1="898.95" x2="513.93" y2="898.95"/><polyline class="cls-1" points="501.33 898.95 489.23 898.95 489.23 886.85"/><line class="cls-9" x1="489.23" y1="864.75" x2="489.23" y2="654.65"/><polyline class="cls-1" points="489.23 643.55 489.23 631.45 501.33 631.45"/><line class="cls-4" x1="526.53" y1="631.45" x2="1066.93" y2="631.45"/><polyline class="cls-1" points="1079.43 631.45 1091.53 631.45 1091.53 643.55"/><line class="cls-9" x1="1091.53" y1="665.65" x2="1091.53" y2="875.85"/><path class="cls-3" d="M1057.83,886.85H522.43a16.35,16.35,0,0,1-16.4-16.4V665.65a16.35,16.35,0,0,1,16.4-16.4h535.5a16.35,16.35,0,0,1,16.4,16.4v204.8A16.5,16.5,0,0,1,1057.83,886.85Z"/><polygon class="cls-2" points="728.03 789.05 757.63 846.85 792.23 791.85 728.03 789.05"/><path class="cls-1" d="M767.63,814.55c3.6,1.9,7.1,3.9,10.5,5.9"/><path class="cls-10" d="M798.13,833.85c87.2,64.7,130.3,186.5,98.5,291-27.8,91.5-101.8,159.9-168,228.8-33.7,35.1-68.1,76.1-68.8,124.7-.7,42.4,24.5,80.5,50.7,113.7a985.34,985.34,0,0,0,183.6,178.5"/><path class="cls-1" d="M903.83,1777.75c3.3,2.4,6.5,4.7,9.8,7"/><path class="cls-3" d="M1078.83,1704.65H229.73a93.59,93.59,0,0,0-93.6,93.6v18h942.7Z"/><rect class="cls-2" x="136.13" y="1816.25" width="942.7" height="109.9"/><rect class="cls-3" x="136.13" y="1926.15" width="942.7" height="378.6"/><rect class="cls-3" x="219.03" y="2197.35" width="104.9" height="54.6"/><rect class="cls-3" x="351.93" y="2197.35" width="104.9" height="54.6"/><rect class="cls-3" x="484.93" y="2197.35" width="104.9" height="54.6"/><path class="cls-3" d="M564.93,2238.85c-39.1-102.8-20.7-217.8,48.5-298,82.2-95.2,222.7-125.9,344.8-72.8,7.8-38.5,24.4-95.9,64.1-152.5,181.7-258.8,714.5-311.2,997.9-53.7,49,44.5,143.4,146.3,187.1,336.1,92.9-117.8,263.4-119.7,348.2-29.5,81.1,86.3,74.3,246.6-37.2,336.1H584.83C578.23,2282.75,571.53,2260.85,564.93,2238.85Z"/><rect class="cls-3" x="1028.73" y="1491.25" width="726" height="111"/><rect class="cls-3" x="1028.73" y="1602.25" width="726" height="588"/><rect class="cls-3" x="1028.73" y="2190.15" width="726" height="18.7"/><rect class="cls-3" x="1028.73" y="2208.85" width="726" height="95.7"/><rect class="cls-2" x="1296.23" y="1668.65" width="198.3" height="38.2"/><polygon class="cls-2" points="1028.73 1491.25 962.33 1575.85 963.53 1654.05 1028.73 1604.45 1028.73 1491.25"/><polygon class="cls-3" points="1028.73 1604.45 963.53 1654.05 971.73 2201.25 1028.73 2189.35 1028.73 1604.45"/><polygon class="cls-3" points="971.73 2201.25 972.03 2222.55 1028.73 2208.35 1028.73 2189.35 971.73 2201.25"/><polygon class="cls-2" points="972.03 2222.55 973.23 2304.65 1028.73 2304.65 1028.73 2208.35 972.03 2222.55"/><line class="cls-11" x1="3.13" y1="2304.65" x2="2873.13" y2="2304.65"/><circle class="cls-3" cx="2388.03" cy="306.65" r="148.3"/><path class="cls-2" d="M2409.83,276.45a34.7,34.7,0,1,0-34.8,0,70.49,70.49,0,0,0-52.9,68.2v34H2463v-34A70.8,70.8,0,0,0,2409.83,276.45Z"/><path class="cls-12" d="M1507.33,694.25s122.5,275.8,183.8,273.9-160.3,80.1-160.3,80.1l-23.5-190.2Z"/><path class="cls-12" d="M1152.93,1088s-75.1-187.2,0-315.5,171.5-173.8,171.5-173.8,109.2-20.9,157.4,34.6,131.9,243.8,60,480.4C1379,1172.85,1152.93,1088,1152.93,1088Zm-10.2-61s93.9-76.3,194.1-76.3"/><path class="cls-3" d="M1853.73,1083.15c-86,88-88,252.5-88,252.5l128.6,99.4s40-95.8,108.9-210c64.6-107.1,174.7-286.5,0-308.3s-481.7,161-481.7,161-138.6,162.6-135.9,163.3,249.8,41.4,249.8,41.4,128.7-81.3,157.9-96.3"/><path class="cls-2" d="M1922,2073.25c7.9-.9,13.8-5.2,18.7-11.1a27.5,27.5,0,0,1-3.1-3.2c-7.2-10.2-15.5-23.2-15.5-23.2l-79.2,19.1s-.2,9,.6,21.4C1867.13,2087.75,1897.63,2076.75,1922,2073.25Z"/><path class="cls-3" d="M2076.43,2176.35c-15.6-22.4-115.7-95.7-135.6-114.1-4.9,5.9-10.9,10.2-18.7,11.1-24.4,3.5-54.9,14.5-78.4,3,1.4,22.7,6.1,57,20.8,70.5,22.7,20.9,121,65.1,158.8,65.5C2060.93,2212.75,2093.23,2200.45,2076.43,2176.35Z"/><path class="cls-3" d="M1200.73,1134.65s-43.7,29.1-49.8,119.8,6.7,240.4,193.8,246.8,287.2,3.6,300.9-12.7c6.4,50.9,162.9,540.4,187.4,565.9s111,10.9,111.9-32.8-6.4-483.1-16.4-545-25.5-205.6-423.1-254.7m-155.2,53.1s14.9,35.5-5.5,71.9"/><path class="cls-13" d="M1261.83,1279.55s-18.8,125.1,229.9,107.8,304.8,38.5,313.4,185.2,66.8,470.2,66.8,470.2"/><path class="cls-2" d="M1182.73,1167.45s48.9,59.7,119.3,67.6,148.5,3.9,228.8-60.1c36.9-33.3,22.8-42.7,22.8-42.7h-362.2l-12.8,27.6Zm618.8-142.6s174.7-132.4,201-149.4,9.9-33.1,9.9-33.1-67-70.7-93.8-93.5-43-6.1-43-6.1l-214.3,162.4s-11.3,9.8,3.1,26.1,106.9,102.6,106.9,102.6S1779.73,1045.05,1801.53,1024.85Z"/><path class="cls-3" d="M1806.43,1005.85s150.6-114.1,173.2-128.8,8.5-28.5,8.5-28.5-57.7-61-80.9-80.6-37.1-5.3-37.1-5.3l-184.7,140s-9.7,8.4,2.7,22.5,92.2,88.4,92.2,88.4S1787.63,1023.25,1806.43,1005.85Z"/><path class="cls-3" d="M1337.23,878.05l7.5,91s85.3,140.1,259.9,25.5c120.1-86,189.7-161,259.3-165.1s47.1,17.1,6.1,26.6-28.7,32.1-27.3,43.7-2.7,49.8-60.7,53.9-61.4,40.3-96.2,76.4-159.4,186.5-322.3,194.7-204.7-120.2-210.6-136.7c0,0,60.7-81.9,176.7-113.3l15.1-5.7m665-99.2s6.7,14.4,32.1-11.3,9.3-56.4-10.9-82.8-45.5-29.1-45.5-29.1-59.1,18.2-50.9,45.7,35.7,49.6,62.3,44.1c14.2-8.4,20,9.2,21.6,12.4C2018.43,848.85,2022.63,860.35,2009.73,869.85Zm-565.5-307.7c72.9,44.9,97.7-2.1,116.4-37.6s9.3-90.3,9.3-90.3c-6.1-24.6-34.1-56.6-104.4-39.6s-82.9,129.6-82.9,129.6l-57.3,82.9s-1.3,27.4,42.4,32.4,64.3-7.1,70.9-19.6c14.1-29.6,21.9-46.9,21.9-46.9"/><polygon class="cls-2" points="1444.63 563.25 1457.33 577.65 1459.13 572.35 1444.63 563.25"/><path class="cls-2" d="M1437.13,501.15s-4.4,33.1-27,33.4-58.7-35.1-54.9-67.9,31.7-94.5,86.7-119.4,119.4,9.6,143.3,18.4,45.4,3.8,53.2-1,4.4,20.5-7.5,31-32.8,42-103.7,23.9c-11.6-3.4-38.2,13-38.2,21.2s-10.6,10.2-10.6,10.2-18.8-40.6-36.2-23.9,7.8,50.2,14,56.6S1437.13,501.15,1437.13,501.15Z"/><rect class="cls-2" x="476.33" y="150.55" width="26.4" height="26.4"/><rect class="cls-2" x="476.33" y="558.75" width="26.4" height="26.4"/><rect class="cls-2" x="1076.13" y="150.55" width="26.4" height="26.4"/><rect class="cls-2" x="1076.13" y="558.75" width="26.4" height="26.4"/><circle class="cls-3" cx="333.93" cy="1266.95" r="155.3"/><circle class="cls-3" cx="333.93" cy="1266.95" r="138.3"/><polygon class="cls-2" points="301.83 1186.65 301.83 1347.15 389.03 1266.95 301.83 1186.65"/><circle class="cls-3" cx="2462.83" cy="939.45" r="110.6"/><circle class="cls-3" cx="2462.83" cy="939.45" r="98.6"/><path d="M2437.73,993.55l4.5-33.8h-14.1v-10.2h15.7l3.3-25h-14.8v-10.2h16.4l4.5-32.9h10l-4.3,32.9h17.9l4.5-32.9h10.2l-4.3,32.9h14.1v10.2h-15.7l-3.1,25h14.8v10.2h-16.4l-4.5,33.8h-10.3l4.5-33.8h-17.9l-4.5,33.8Zm34.3-44,3.3-25h-17.9l-3.3,25Z"/><polyline class="cls-11" points="1958.73 2088.15 1936.73 2118.85 1981.73 2107.35 1975.93 2141.35 2008.53 2129.85 2002.83 2148.05"/><rect class="cls-3" x="108.33" y="360.65" width="174.7" height="174.7"/><line class="cls-1" x1="195.63" y1="390.45" x2="195.63" y2="505.45"/><line class="cls-1" x1="138.33" y1="447.95" x2="251.53" y2="447.95"/><circle class="cls-3" cx="2386.13" cy="563.25" r="22.7"/><rect class="cls-3" x="2170.33" y="1360.35" width="263.5" height="170.9"/><polygon class="cls-3" points="2302.03 1443.35 2170.33 1360.35 2433.83 1360.35 2302.03 1443.35"/><line class="cls-1" x1="2170.33" y1="1531.25" x2="2268.43" y2="1422.25"/><line class="cls-1" x1="2339.33" y1="1422.25" x2="2433.83" y2="1531.25"/></svg>