<svg width="500" height="500" viewBox="0 0 500 500" fill="none" xmlns="http://www.w3.org/2000/svg">
<g clip-path="url(#clip0_93_213)">
<path d="M32.235 401.244H344.66C344.66 401.244 325.636 428.822 263.433 419.124C201.23 409.426 211.573 403.482 177.112 414.432C142.65 425.381 103.094 437.269 68.6711 431.951C34.248 426.632 32.235 401.244 32.235 401.244Z" fill="white" stroke="#1A1A1A" stroke-width="3.511" stroke-linecap="round" stroke-linejoin="round"/>
<path d="M180.994 389.565C172.812 371.956 188.536 338.864 208.679 324.938C233.575 307.727 278.299 321.64 282.071 323.805C283.497 320.762 306.126 274.699 352.199 272.981C387.85 271.652 404.31 283.226 418.192 326.64C419.372 326.159 437.069 327.212 448.46 338.25C462.122 351.488 460.839 381.852 448.408 401.244H195.446C186.454 398.35 182.716 393.271 180.994 389.565Z" stroke="#1A1A1A" stroke-width="5.266" stroke-linecap="round" stroke-linejoin="round"/>
<path d="M399.853 83.8947C399.853 81.6418 399.41 79.411 398.548 77.3297C397.685 75.2483 396.422 73.3571 394.829 71.7641C393.236 70.1711 391.345 68.9075 389.263 68.0454C387.182 67.1832 384.951 66.7395 382.698 66.7395H141.954C139.701 66.7395 137.47 67.1832 135.389 68.0454C133.308 68.9075 131.417 70.1711 129.824 71.7641C128.231 73.3571 126.967 75.2483 126.105 77.3297C125.243 79.411 124.799 81.6418 124.799 83.8947V84.0853H399.853V83.8947Z" fill="#1C0311" stroke="#1A1A1A" stroke-width="1.755" stroke-linecap="round" stroke-linejoin="round"/>
<path d="M399.852 100.478H352.199V114.759H399.852V100.478Z" fill="#1C0311" stroke="#1A1A1A" stroke-width="1.755" stroke-linecap="round" stroke-linejoin="round"/>
<path d="M399.852 114.759H352.199V197.349H399.852V114.759Z" fill="white" stroke="#1A1A1A" stroke-width="3.511" stroke-linecap="round" stroke-linejoin="round"/>
<path d="M352.199 197.349V252.015H382.699C384.952 252.015 387.183 251.571 389.264 250.709C391.345 249.847 393.236 248.583 394.829 246.99C396.422 245.397 397.685 243.506 398.547 241.424C399.409 239.343 399.853 237.112 399.852 234.859V197.349H352.199Z" fill="#1C0311" stroke="#1A1A1A" stroke-width="1.755" stroke-linecap="round" stroke-linejoin="round"/>
<path d="M399.852 84.0854V100.478H352.199V252.015H141.955C139.702 252.016 137.471 251.572 135.39 250.71C133.308 249.848 131.417 248.584 129.824 246.991C128.231 245.398 126.967 243.506 126.105 241.425C125.243 239.343 124.799 237.112 124.799 234.859V84.0854H399.852Z" fill="white" stroke="#1A1A1A" stroke-width="3.511" stroke-linecap="round" stroke-linejoin="round"/>
<path d="M352.199 100.478H124.799" stroke="#1A1A1A" stroke-width="3.511" stroke-linecap="round" stroke-linejoin="round"/>
<path d="M170.896 100.478V252.015" stroke="#1A1A1A" stroke-width="3.511" stroke-linecap="round" stroke-linejoin="round"/>
<path d="M329.073 111.533H186.24V170.751H329.073V111.533Z" stroke="#1A1A1A" stroke-width="3.511" stroke-linecap="round" stroke-linejoin="round" stroke-dasharray="21.07 21.07"/>
<path d="M324.977 166.655V115.63L190.336 115.63V166.655H324.977Z" fill="white" stroke="#1A1A1A" stroke-width="3.511" stroke-linecap="round" stroke-linejoin="round"/>
<path d="M329.073 180.053H186.24V239.271H329.073V180.053Z" stroke="#1A1A1A" stroke-width="3.511" stroke-linecap="round" stroke-linejoin="round" stroke-dasharray="21.07 21.07"/>
<path d="M324.977 235.175V184.149H190.336V235.175H324.977Z" fill="white" stroke="#1A1A1A" stroke-width="3.511" stroke-linecap="round" stroke-linejoin="round"/>
<path d="M248.507 252.015V401.265H307.217V252.015H248.507ZM277.86 311.962C275.014 311.962 272.232 311.118 269.865 309.537C267.498 307.955 265.654 305.708 264.565 303.078C263.475 300.448 263.19 297.555 263.746 294.763C264.301 291.971 265.672 289.407 267.684 287.394C269.697 285.382 272.261 284.011 275.053 283.456C277.845 282.9 280.738 283.185 283.368 284.275C285.997 285.364 288.245 287.209 289.826 289.575C291.408 291.942 292.252 294.724 292.252 297.571C292.252 301.387 290.735 305.048 288.036 307.747C285.338 310.445 281.677 311.962 277.86 311.962Z" fill="white" stroke="#1A1A1A" stroke-width="3.511" stroke-linecap="round" stroke-linejoin="round"/>
<path d="M378.737 401C385.455 401.28 392.419 401.518 398.636 398.956C404.852 396.395 410.11 390.197 409.325 383.519C408.907 379.968 406.907 376.837 405.486 373.556C404.066 370.275 403.263 366.293 405.151 363.257C407.732 359.105 414.026 358.694 416.823 354.684C419.341 351.075 418.004 346.063 415.887 342.205C414.694 340.03 413.2 337.9 411.025 336.707C408.851 335.514 405.857 335.521 404.125 337.296C402.343 339.122 402.411 342.08 401.046 344.235C399.721 346.33 397.19 347.391 394.724 347.646C392.258 347.901 389.781 347.477 387.312 347.256C374.833 346.134 361.244 351.009 354.666 361.672C351.865 366.213 350.473 371.467 348.189 376.288C345.906 381.11 342.328 385.784 337.193 387.23C335.211 387.788 333.122 387.828 331.106 388.243C329.09 388.658 327.025 389.557 325.947 391.311C324.072 394.362 326.2 398.594 329.381 400.238C332.563 401.882 336.421 400.637 339.917 401.412C340.739 401.594 378.737 401 378.737 401Z" fill="#1C0311" stroke="#1A1A1A" stroke-width="1.755" stroke-linecap="round" stroke-linejoin="round"/>
<path d="M352.211 401.446C358.011 398.659 365.335 392.003 369.367 386.988C373.247 382.161 376.048 376.559 379.714 371.567M379.714 371.567C383.38 366.575 388.244 362.031 394.301 360.739M379.714 371.567C378.168 365.919 379.734 363.362 379.734 363.362M383.006 379.287C383.006 379.287 381.278 381.589 373.198 381.584M395.958 365.544C395.958 365.544 391.172 367.642 386.216 364.684" stroke="white" stroke-width="5.266" stroke-linecap="round" stroke-linejoin="round"/>
<path d="M312.338 356.849C312.673 353.114 313.329 349.28 315.371 346.135C317.412 342.99 321.143 340.688 324.838 341.324C328.942 342.031 332.588 346.097 336.546 344.799C339.039 343.981 340.426 341.196 340.541 338.574C340.657 335.953 339.791 333.403 339.14 330.861C338.273 327.476 337.776 323.916 338.465 320.491C339.153 317.065 341.178 313.778 344.31 312.23C349.097 309.862 355.1 312.182 358.75 316.081C360.068 317.489 361.186 319.092 362.654 320.343C364.121 321.594 366.076 322.478 367.961 322.071C369.932 321.645 371.402 319.865 371.966 317.929C372.531 315.993 372.335 313.919 371.985 311.933C371.515 309.269 370.98 306.001 373.095 304.313C374.51 303.184 376.529 303.327 378.316 303.619C382.463 304.297 386.623 305.512 390.015 307.993C393.407 310.474 395.941 314.389 395.957 318.592C395.974 322.794 393.016 327.054 388.876 327.779C386.142 328.257 383.094 327.289 380.684 328.666C378.145 330.117 377.52 333.652 378.375 336.448C379.231 339.244 381.189 341.539 382.867 343.934C384.545 346.328 386.03 349.119 385.712 352.026C385.29 355.88 381.639 358.808 377.81 359.421C373.981 360.033 370.086 358.768 366.628 357.016C364.664 356.021 362.564 354.825 360.403 355.243C357.217 355.86 355.704 359.702 355.966 362.936C356.229 366.171 357.663 369.223 357.932 372.457C358.556 379.955 352.616 386.746 345.655 389.602C338.695 392.457 330.912 392.26 323.392 392.017C320.019 387.744 314.204 382.714 313.087 377.229C311.753 370.683 311.743 363.472 312.338 356.849Z" fill="white" stroke="#1A1A1A" stroke-width="3.511" stroke-linecap="round" stroke-linejoin="round"/>
<path d="M317.747 376.496C327.097 371.862 335.027 364.796 340.704 356.039C344.259 350.535 346.859 344.459 350.434 338.968C354.009 333.478 358.84 328.428 365.095 326.479M350.31 328.458C350.31 328.458 349.001 335.676 349.574 340.329L350.31 328.458ZM369.862 335.877C369.535 335.657 357.279 339.241 351.095 337.98L369.862 335.877ZM350.31 357.254C350.31 357.254 343.547 363.325 337.316 360.739L350.31 357.254ZM327.649 356.027C327.649 356.354 324.123 364.939 328.545 369.563L327.649 356.027Z" fill="white"/>
<path d="M317.747 376.496C327.097 371.862 335.027 364.796 340.704 356.039C344.259 350.535 346.859 344.459 350.434 338.968C354.009 333.478 358.84 328.428 365.095 326.479M350.31 328.458C350.31 328.458 349.001 335.676 349.574 340.329M369.862 335.877C369.535 335.657 357.279 339.241 351.095 337.98M350.31 357.254C350.31 357.254 343.547 363.325 337.316 360.739M327.649 356.027C327.649 356.354 324.123 364.939 328.545 369.563" stroke="#1A1A1A" stroke-width="3.511" stroke-linecap="round" stroke-linejoin="round"/>
<path d="M47.4003 401.288H344.943C338.744 369.555 312.337 345.843 281.083 343.315C252.64 341.015 225.112 356.658 211.915 382.786C209.185 378.764 199.852 359.321 156.241 359.317C114.404 359.313 101.253 366.644 93.7289 371.567C84.6003 351.938 56.0186 345.5 45.0417 358.822C35.2792 370.67 35.875 389.163 47.4003 401.288Z" fill="white" stroke="#1A1A1A" stroke-width="3.511" stroke-linecap="round" stroke-linejoin="round"/>
<path d="M7 401.265H448.46" stroke="#1A1A1A" stroke-width="5.266" stroke-linecap="round" stroke-linejoin="round"/>
<path d="M312.002 66.7395L103.321 401.265" stroke="#1A1A1A" stroke-width="5.266" stroke-linecap="round" stroke-linejoin="round"/>
<path d="M361.997 66.7395L153.316 401.265" stroke="#1A1A1A" stroke-width="5.266" stroke-linecap="round" stroke-linejoin="round"/>
<path d="M141.281 340.414L183.219 351.939" stroke="#1A1A1A" stroke-width="5.266" stroke-linecap="round" stroke-linejoin="round"/>
<path d="M176.469 283.899L218.407 295.424" stroke="#1A1A1A" stroke-width="5.266" stroke-linecap="round" stroke-linejoin="round"/>
<path d="M211.717 227.323L253.656 238.848" stroke="#1A1A1A" stroke-width="5.266" stroke-linecap="round" stroke-linejoin="round"/>
<path d="M246.943 171.142L288.881 182.667" stroke="#1A1A1A" stroke-width="5.266" stroke-linecap="round" stroke-linejoin="round"/>
<path d="M282.071 114.714L324.009 126.239" stroke="#1A1A1A" stroke-width="5.266" stroke-linecap="round" stroke-linejoin="round"/>
<path d="M194.754 164.143C194.754 164.143 203.045 167.002 212.1 178.058C221.154 189.113 237.165 183.299 242.502 174.15C247.84 165.001 256.512 147.369 264.899 150.419C269.283 152.388 272.397 157.281 269.411 158.234C266.424 159.187 263.057 155.946 262.167 157.281C261.278 158.615 266.361 159.695 265.471 161.156C264.582 162.618 261.087 159.632 259.689 163.762C258.291 167.891 250.286 196.547 231.733 201.63C213.18 206.713 203.141 192.989 202.76 192.099C202.378 191.21 193.102 165.114 193.102 165.114L194.754 164.143Z" fill="white" stroke="#1A1A1A" stroke-width="3.511" stroke-linecap="round" stroke-linejoin="round"/>
<path d="M59.9329 393.039C59.5146 392.367 59.4094 391.67 59.7045 390.972C60.7529 388.494 45.0273 384.015 45.0273 384.015C45.0273 384.015 43.8584 385.565 42.491 387.827C46.3346 393.002 53.1666 393.911 59.9329 393.039Z" fill="#1C0311" stroke="#1A1A1A" stroke-width="1.755" stroke-linecap="round" stroke-linejoin="round"/>
<path d="M67.8056 397.263C64.1077 396.304 61.0003 394.755 59.9329 393.039C53.1666 393.911 46.3346 393.002 42.491 387.827C40.2369 391.555 37.4428 397.219 38.4512 401.075C40.0714 407.27 72.5709 407.937 75.8114 406.126C79.0518 404.315 72.9521 398.597 67.8056 397.263ZM123.56 255.637C123.56 255.637 105.166 303.672 94.7456 320.064C84.3254 336.457 43.0259 379.536 43.5342 383.221C44.0425 386.906 49.7609 389.32 55.6064 390.972C61.4519 392.624 63.7392 394.022 78.0987 379.663C92.4582 365.303 147.609 322.225 163.112 281.56C161.079 258.941 123.56 255.637 123.56 255.637Z" fill="white" stroke="#1A1A1A" stroke-width="3.511" stroke-linecap="round" stroke-linejoin="round"/>
<path d="M164.243 330.42C165.702 330.678 167.161 330.909 168.606 331.05C169.001 330.395 169.46 329.78 169.974 329.214L163.982 320.401C163.982 320.401 161.58 322.424 159.016 325.08C159.778 327.737 161.704 329.997 164.243 330.42Z" fill="#1C0311" stroke="#1A1A1A" stroke-width="1.755" stroke-linecap="round" stroke-linejoin="round"/>
<path d="M183.126 347.131C182.269 343.891 178.768 337.315 168.081 334.742C167.379 333.648 167.924 332.193 168.606 331.05C167.161 330.909 165.702 330.678 164.243 330.42C161.704 329.997 159.778 327.737 159.016 325.08C156.344 327.849 153.496 331.306 153.01 333.884C152.057 338.935 161.492 346.655 170.165 348.466C178.838 350.276 183.984 350.372 183.126 347.131Z" fill="white" stroke="#1A1A1A" stroke-width="3.511" stroke-linecap="round" stroke-linejoin="round"/>
<path d="M180.845 284.295C169.605 297.196 161.587 321.081 161.714 321.462C161.714 321.462 166.225 332.136 170.673 330.421C175.121 328.705 190.497 316.633 190.497 316.633C190.497 316.633 227.666 287.025 232.241 267.328C236.816 247.631 228.175 232.509 192.212 238.228C181.157 237.719 154.852 229.714 154.852 229.714L132.36 215.354C132.36 215.354 122.1 232.935 121.431 239.781C121.431 239.781 113.934 284.737 145.322 287.406C176.709 290.074 191.704 279.527 191.704 279.527" fill="white"/>
<path d="M180.845 284.295C169.605 297.196 161.587 321.081 161.714 321.462C161.714 321.462 166.225 332.136 170.673 330.421C175.121 328.705 190.497 316.633 190.497 316.633C190.497 316.633 227.666 287.025 232.241 267.328C236.816 247.631 228.175 232.509 192.212 238.228C181.157 237.719 154.852 229.714 154.852 229.714L132.36 215.354C132.36 215.354 122.1 232.935 121.431 239.781C121.431 239.781 113.934 284.737 145.322 287.406C176.709 290.074 191.704 279.527 191.704 279.527" stroke="#1A1A1A" stroke-width="3.511" stroke-linecap="round" stroke-linejoin="round"/>
<path d="M121.431 239.781C121.431 239.781 172.857 243.198 184.387 241.217C193.102 239.781 190.783 238.227 190.783 238.227L127.067 233.535L121.431 239.781Z" fill="#1C0311" stroke="#1A1A1A" stroke-width="1.755" stroke-linecap="round" stroke-linejoin="round"/>
<path d="M195.272 151.846C192.548 150.316 191.501 148.88 191.425 148.772L195.272 151.846Z" fill="white" stroke="#1A1A1A" stroke-width="3.511" stroke-linecap="round" stroke-linejoin="round"/>
<path d="M215.913 135.074L213.2 143.268C213.2 143.268 204.666 156.709 197.422 152.897C196.687 152.585 195.97 152.234 195.272 151.846L195.515 152.039L191.896 158.423C193.057 160.48 197.15 164.953 197.656 165.506C197.669 165.521 197.682 165.535 197.697 165.547C197.701 165.552 197.705 165.557 197.709 165.562C197.709 165.562 187.51 169.193 181.507 167.191C175.503 165.19 172.262 159.187 172.262 159.187L187.224 142.318L192.753 129.737C192.753 129.737 207.811 130.118 210.003 131.071C212.194 132.025 215.913 135.074 215.913 135.074Z" fill="white" stroke="#1A1A1A" stroke-width="3.511" stroke-linecap="round" stroke-linejoin="round"/>
<path d="M192.216 149.484C192.216 149.484 194.395 154.014 194.442 153.933C194.488 153.851 195.272 152.274 195.272 152.274L192.216 149.484Z" fill="#1C0311" stroke="#1A1A1A" stroke-width="1.755" stroke-linecap="round" stroke-linejoin="round"/>
<path d="M126.185 202.014C123.96 200.455 123.038 197.613 122.667 194.922C122.297 192.231 122.323 189.444 121.376 186.898C119.739 182.499 115.546 179.638 112.824 175.815C107.48 168.307 108.896 156.806 115.901 150.818C121.64 145.914 129.795 144.935 137.317 145.574C144.838 146.212 152.216 148.238 159.761 148.481C167.306 148.724 175.458 146.826 180.357 141.082C183.15 137.807 184.629 133.592 187.3 130.217C191.294 125.171 197.978 122.393 204.372 123.122C210.765 123.85 216.653 128.061 219.409 133.876C220.227 135.601 220.789 137.518 220.535 139.409C220.28 141.301 219.067 143.147 217.249 143.73C214.891 144.486 212.45 143.023 210.405 141.626L201.448 135.508C199.77 134.362 197.91 133.166 195.886 133.34C193.919 133.51 192.173 135.142 191.872 137.093C191.57 139.044 192.742 141.126 194.566 141.882C194.566 141.882 180.458 154.612 176.836 156.709C173.215 158.806 131.661 207.221 131.661 207.221L126.185 202.014Z" fill="#1C0311" stroke="#1A1A1A" stroke-width="1.755" stroke-linecap="round" stroke-linejoin="round"/>
<path d="M206.381 187.97C206.381 214.845 193.61 239.054 193.61 239.054C193.61 239.054 169.974 241.533 164.828 237.337C159.681 233.145 149.134 234.034 144.559 230.476C139.983 226.919 135.41 215.989 135.41 215.989C135.41 215.989 149.515 163.888 172.262 159.187C172.262 159.187 175.503 165.19 181.507 167.192C187.51 169.193 197.709 165.562 197.709 165.562C197.705 165.557 197.701 165.552 197.697 165.547C202.387 169.909 206.381 176.878 206.381 187.97Z" fill="#54CAFA" stroke="#1A1A1A" stroke-width="3.511" stroke-linecap="round" stroke-linejoin="round"/>
<path d="M91.77 242.253L98.1202 192.477L180.228 203.437L171.016 254.001L91.77 242.253Z" fill="white" stroke="#1A1A1A" stroke-width="3.511" stroke-linecap="round" stroke-linejoin="round"/>
<path d="M99.638 194.45L93.729 240.769L169.593 252.015L178.17 204.934L99.638 194.45Z" fill="white" stroke="#1A1A1A" stroke-width="3.511" stroke-linecap="round" stroke-linejoin="round"/>
<path d="M166.521 161.435C166.521 161.435 150.379 166.749 136.313 188.506C139.133 193.793 144.426 197.883 150.246 199.406C153.326 196.35 156.699 193.605 160.316 191.21" fill="#54CAFA"/>
<path d="M166.521 161.435C166.521 161.435 150.379 166.749 136.313 188.506C139.133 193.793 144.426 197.883 150.246 199.406C153.326 196.35 156.699 193.605 160.316 191.21" stroke="#1A1A1A" stroke-width="3.511" stroke-linecap="round" stroke-linejoin="round"/>
<path d="M150.246 199.406C144.426 197.883 139.132 193.793 136.313 188.506C135.256 190.14 134.214 191.867 133.186 193.688C118.509 219.802 115.268 236.957 144.623 256.876C151.294 260.307 161.111 254.23 159.062 250.454C155.155 249.875 150.148 250.818 150.769 249.225C151.389 247.631 157.298 247.298 154.868 244.486C152.628 242.437 148.768 245.344 145.194 244.915C141.62 244.486 134.234 235.909 135.95 224.948C137.213 216.875 142.05 207.562 150.246 199.406Z" fill="white" stroke="#1A1A1A" stroke-width="3.511" stroke-linecap="round" stroke-linejoin="round"/>
<path d="M192.531 149.294C192.531 149.294 194.574 151.474 195.272 151.846L192.531 149.294Z" fill="#54CAFA"/>
<path d="M192.531 149.294C192.531 149.294 194.574 151.474 195.272 151.846" stroke="#1A1A1A" stroke-width="3.511" stroke-linecap="round" stroke-linejoin="round"/>
<path d="M437.407 253.108C442.936 253.108 447.418 248.626 447.418 243.097C447.418 237.568 442.936 233.086 437.407 233.086C431.878 233.086 427.396 237.568 427.396 243.097C427.396 248.626 431.878 253.108 437.407 253.108Z" fill="white" stroke="#1A1A1A" stroke-width="3.511" stroke-linecap="round" stroke-linejoin="round"/>
<path d="M32.235 344.137C36.1445 344.137 39.3138 340.968 39.3138 337.059C39.3138 333.149 36.1445 329.98 32.235 329.98C28.3254 329.98 25.1561 333.149 25.1561 337.059C25.1561 340.968 28.3254 344.137 32.235 344.137Z" fill="white" stroke="#1A1A1A" stroke-width="3.511" stroke-linecap="round" stroke-linejoin="round"/>
<path d="M86.491 138.911V132.254H79.624C79.3556 131.282 78.9682 130.346 78.4705 129.468L83.3256 124.613L78.6181 119.906L73.763 124.761C72.8854 124.263 71.9496 123.876 70.9771 123.607V116.743H64.3239V123.607C63.3513 123.876 62.4156 124.263 61.538 124.761L56.6829 119.906L51.9754 124.613L56.8305 129.468C56.3328 130.346 55.9454 131.282 55.6769 132.254H48.8099V138.911H55.6769C55.9454 139.883 56.3328 140.819 56.8305 141.696L51.9754 146.552L56.6829 151.259L61.538 146.404C62.4156 146.902 63.3513 147.289 64.3239 147.558V154.422H70.9771V147.558C71.9496 147.289 72.8854 146.902 73.763 146.404L78.6181 151.259L83.3256 146.552L78.4705 141.697C78.9682 140.819 79.3556 139.883 79.624 138.911L86.491 138.911ZM73.4136 138.911C72.8293 139.922 71.989 140.763 70.9771 141.347C70.4742 141.64 69.9343 141.864 69.3717 142.013C68.243 142.314 67.055 142.314 65.9262 142.013C65.3647 141.864 64.8257 141.64 64.3239 141.347C62.7961 140.462 61.68 139.009 61.2187 137.305C61.0705 136.743 60.9956 136.164 60.9958 135.582C60.9951 135.001 61.0711 134.422 61.2217 133.86C61.3707 133.297 61.5946 132.757 61.8873 132.254C62.4725 131.243 63.3126 130.403 64.3239 129.818C64.8257 129.525 65.3647 129.301 65.9262 129.152C67.055 128.851 68.243 128.851 69.3717 129.152C69.9343 129.301 70.4742 129.525 70.9771 129.818C71.9883 130.403 72.8285 131.243 73.4136 132.254C73.7064 132.757 73.9303 133.297 74.0792 133.86C74.2299 134.422 74.3058 135.001 74.3051 135.582C74.3053 136.164 74.2304 136.743 74.0823 137.305C73.9309 137.867 73.7061 138.407 73.4136 138.911Z" fill="white" stroke="#1A1A1A" stroke-width="3.511" stroke-linecap="round" stroke-linejoin="round"/>
<path d="M454.772 137.396H429.427V162.741H454.772V137.396Z" fill="white" stroke="#1A1A1A" stroke-width="3.511" stroke-linecap="round" stroke-linejoin="round"/>
<path d="M442.1 141.726V158.411" stroke="#1A1A1A" stroke-width="3.511" stroke-linecap="round" stroke-linejoin="round"/>
<path d="M433.787 150.069H450.204" stroke="#1A1A1A" stroke-width="3.511" stroke-linecap="round" stroke-linejoin="round"/>
<path d="M149.487 96.706C152.021 96.706 154.076 94.6517 154.076 92.1176C154.076 89.5836 152.021 87.5293 149.487 87.5293C146.953 87.5293 144.899 89.5836 144.899 92.1176C144.899 94.6517 146.953 96.706 149.487 96.706Z" fill="white" stroke="#1A1A1A" stroke-width="3.511" stroke-linecap="round" stroke-linejoin="round"/>
<path d="M251.446 88.6884H172.797C171.747 88.6884 170.896 89.5395 170.896 90.5894V93.4614C170.896 94.5112 171.747 95.3624 172.797 95.3624H251.446C252.496 95.3624 253.347 94.5112 253.347 93.4614V90.5894C253.347 89.5395 252.496 88.6884 251.446 88.6884Z" fill="white" stroke="#1A1A1A" stroke-width="3.511" stroke-linecap="round" stroke-linejoin="round"/>
<path d="M493 190.361H454.773V215.151H493V190.361Z" fill="white" stroke="#1A1A1A" stroke-width="3.511" stroke-linecap="round" stroke-linejoin="round"/>
<path d="M473.886 202.408L454.773 190.361H493L473.886 202.408Z" fill="white" stroke="#1A1A1A" stroke-width="3.511" stroke-linecap="round" stroke-linejoin="round"/>
<path d="M454.773 215.151L469.012 199.336" stroke="#1A1A1A" stroke-width="3.511" stroke-linecap="round" stroke-linejoin="round"/>
<path d="M479.296 199.336L493 215.151" stroke="#1A1A1A" stroke-width="3.511" stroke-linecap="round" stroke-linejoin="round"/>
</g>
<defs>
<clipPath id="clip0_93_213">
<rect width="500" height="500" fill="white"/>
</clipPath>
</defs>
</svg>
