<svg id="Layer_1" data-name="Layer 1" xmlns="http://www.w3.org/2000/svg" viewBox="0 0 342.8 68"><defs><style>.cls-1{fill:#465b85;}.cls-2,.cls-3{fill:#76bff6;}.cls-3{fill-rule:evenodd;}</style></defs><path class="cls-1" d="M72.9,53.7a14.37,14.37,0,0,1-8.2-2.4A18.83,18.83,0,0,1,59,45.4V68H54.2V16.4h4.3v7.1a16.7,16.7,0,0,1,5.9-5.6,14.55,14.55,0,0,1,7.7-2.2,15,15,0,0,1,7,1.6,16.15,16.15,0,0,1,5.5,4.2,17.91,17.91,0,0,1,3.6,6.1,19,19,0,0,1,1.3,7.1,20.93,20.93,0,0,1-2.1,9.4A17.08,17.08,0,0,1,81.6,51,13.49,13.49,0,0,1,72.9,53.7Zm-1.3-4.2A11.91,11.91,0,0,0,77,48.3a12.25,12.25,0,0,0,4.1-3.4,14.75,14.75,0,0,0,2.7-4.7,17.13,17.13,0,0,0,.9-5.5A15.62,15.62,0,0,0,83.6,29a13.29,13.29,0,0,0-2.9-4.7,15.55,15.55,0,0,0-4.4-3.2,11.91,11.91,0,0,0-5.4-1.2,10.58,10.58,0,0,0-3.8.7,19.75,19.75,0,0,0-3.8,2,11.84,11.84,0,0,0-3,2.9A7.79,7.79,0,0,0,58.8,29V40.2a20.88,20.88,0,0,0,3,4.7,14.14,14.14,0,0,0,4.4,3.3A12.21,12.21,0,0,0,71.6,49.5Z"/><path class="cls-1" d="M111.9,53.7a16.87,16.87,0,0,1-7.2-1.5A17.68,17.68,0,0,1,98.8,48a22.69,22.69,0,0,1-3.9-6.1,20.07,20.07,0,0,1-1.3-7.3,19.81,19.81,0,0,1,2.3-9.4,18.23,18.23,0,0,1,6.6-6.9,17.71,17.71,0,0,1,9.4-2.6,17,17,0,0,1,9.4,2.6,18.44,18.44,0,0,1,6.4,6.9,18.23,18.23,0,0,1,2.3,9.2v1.1a2,2,0,0,1-.1.8H98.6a16.9,16.9,0,0,0,2.2,7.1,16.35,16.35,0,0,0,4.9,4.9,12.59,12.59,0,0,0,6.6,1.8,13.57,13.57,0,0,0,6.8-1.8,9.48,9.48,0,0,0,4.5-4.8l4.2,1.1a14.09,14.09,0,0,1-3.5,4.7,17.91,17.91,0,0,1-5.5,3.3A20,20,0,0,1,111.9,53.7ZM98.5,33h27a15.21,15.21,0,0,0-2.2-7.1,12.31,12.31,0,0,0-4.9-4.7,13,13,0,0,0-13.2,0,13.24,13.24,0,0,0-4.9,4.8A17.65,17.65,0,0,0,98.5,33Z"/><path class="cls-1" d="M166.7,53h-4.8V32.6c0-4.3-.6-7.4-1.9-9.4a6.66,6.66,0,0,0-6-3,12.87,12.87,0,0,0-5.6,1.4,15.86,15.86,0,0,0-4.9,3.7,13.68,13.68,0,0,0-3,5.4V53h-4.8V16.4h4.4v8.2a17.47,17.47,0,0,1,3.9-4.7,18.37,18.37,0,0,1,5.4-3.2,16.73,16.73,0,0,1,6.3-1.1,12.07,12.07,0,0,1,5.2,1.1,9.47,9.47,0,0,1,3.4,3.2,14.06,14.06,0,0,1,1.8,5,32,32,0,0,1,.6,6.5V53Z"/><path class="cls-2" d="M211.2,13.3H196.1V53H184.6V13.3H169.4V3.3h41.7v10Z"/><path class="cls-2" d="M225.6,53.5a21.56,21.56,0,0,1-8.3-1.5,19.16,19.16,0,0,1-6.2-4.1,16.17,16.17,0,0,1-3.8-5.9,19.39,19.39,0,0,1-1.3-7.1,20.61,20.61,0,0,1,2.3-9.6,17.59,17.59,0,0,1,6.8-7,19.88,19.88,0,0,1,10.6-2.7,19.28,19.28,0,0,1,10.5,2.7,18,18,0,0,1,6.7,7,19.41,19.41,0,0,1,2.3,9.3,13.4,13.4,0,0,1-.1,2c0,.6-.1,1.1-.1,1.6H217.9a8.64,8.64,0,0,0,1.3,4.1,7.83,7.83,0,0,0,6.8,3.4,9.67,9.67,0,0,0,4.7-1.2,6.83,6.83,0,0,0,3.1-3.2l9.5,2.7a16.14,16.14,0,0,1-4,5.1,19.53,19.53,0,0,1-6,3.4A30.55,30.55,0,0,1,225.6,53.5Zm-8.1-22.4h15.9a9.94,9.94,0,0,0-1.3-4,7.75,7.75,0,0,0-6.6-3.7,7.56,7.56,0,0,0-3.9,1,7,7,0,0,0-2.7,2.7A9.49,9.49,0,0,0,217.5,31.1Z"/><path class="cls-2" d="M268.4,53.5a21.56,21.56,0,0,1-8.3-1.5,17.91,17.91,0,0,1-6.2-4.2,16.94,16.94,0,0,1-3.8-6.1,19.7,19.7,0,0,1-1.3-7.3,20.4,20.4,0,0,1,2.3-9.4,18.26,18.26,0,0,1,6.8-7,19.88,19.88,0,0,1,10.6-2.7A19.64,19.64,0,0,1,279.1,18a17.73,17.73,0,0,1,6.6,7l-10.9,3.3a7.23,7.23,0,0,0-6.3-3.5,7.87,7.87,0,0,0-4.2,1.2,8.48,8.48,0,0,0-2.9,3.3,11.17,11.17,0,0,0-1,5,11.17,11.17,0,0,0,1.1,5,8.79,8.79,0,0,0,2.9,3.4,7.3,7.3,0,0,0,4.1,1.2,7.46,7.46,0,0,0,2.6-.4,8,8,0,0,0,2.2-1.3,7,7,0,0,0,1.6-1.9l10.9,3.3a16.59,16.59,0,0,1-3.8,5,18.49,18.49,0,0,1-5.8,3.4A18.41,18.41,0,0,1,268.4,53.5Z"/><path class="cls-2" d="M324.6,53H313.4V32.2c0-2.4-.5-4.1-1.5-5.2a4.72,4.72,0,0,0-3.8-1.7,7.49,7.49,0,0,0-2.9.8,11.71,11.71,0,0,0-2.9,2.2,9,9,0,0,0-2,3.4V53H289.1V1.8h11.2V22.2a13.37,13.37,0,0,1,5.3-5,15.18,15.18,0,0,1,7.3-1.8,11.61,11.61,0,0,1,6,1.3,9.29,9.29,0,0,1,3.5,3.3,12.67,12.67,0,0,1,1.6,4.5,25.92,25.92,0,0,1,.4,4.8V53Z"/><path class="cls-1" d="M23.9,53.8a22.67,22.67,0,0,1-9.8-2.1,23.64,23.64,0,0,1-7.5-5.8,26.77,26.77,0,0,1-4.9-8.3A29,29,0,0,1,0,28a26.51,26.51,0,0,1,1.8-9.7,23.49,23.49,0,0,1,5-8.2,23.77,23.77,0,0,1,7.7-5.7,21.55,21.55,0,0,1,9.4-2.1,21.37,21.37,0,0,1,9.8,2.2,22.77,22.77,0,0,1,7.4,6A26.77,26.77,0,0,1,46,18.8a27.85,27.85,0,0,1,1.7,9.4A27.43,27.43,0,0,1,45.9,38a25.47,25.47,0,0,1-5,8.2,23.74,23.74,0,0,1-7.6,5.7A23.53,23.53,0,0,1,23.9,53.8ZM5.1,27.8a24,24,0,0,0,1.3,8,21.9,21.9,0,0,0,3.9,6.8,20.18,20.18,0,0,0,6,4.8A17.75,17.75,0,0,0,24,49.1a16.61,16.61,0,0,0,7.8-1.8,17.76,17.76,0,0,0,6-4.9,24.37,24.37,0,0,0,3.8-6.9,25.39,25.39,0,0,0,1.3-7.7,23.38,23.38,0,0,0-1.3-7.9,20.35,20.35,0,0,0-4-6.8,18.73,18.73,0,0,0-6-4.8A17.63,17.63,0,0,0,24,6.6a16.9,16.9,0,0,0-7.8,1.8,18.78,18.78,0,0,0-6,4.9,26.49,26.49,0,0,0-3.8,6.8A23.07,23.07,0,0,0,5.1,27.8Z"/><path class="cls-2" d="M221.7,8.2A8.2,8.2,0,1,1,213.5,0,8.24,8.24,0,0,1,221.7,8.2Z"/><path class="cls-3" d="M339.1,40.8h-42V35.6h42Z"/><path class="cls-2" d="M342.8,38.3a8.2,8.2,0,1,1-8.2-8.2A8.24,8.24,0,0,1,342.8,38.3Z"/></svg>