<svg id="Layer_1" data-name="Layer 1" xmlns="http://www.w3.org/2000/svg" xmlns:xlink="http://www.w3.org/1999/xlink" viewBox="0 0 95.45 91.3"><defs><style>.cls-1{fill:none;}.cls-2{fill:#465b85;fill-rule:evenodd;}.cls-3{clip-path:url(#clip-path);}.cls-4{fill:#76bff6;}</style><clipPath id="clip-path"><path class="cls-1" d="M10.7,21.3c-3.4,6.8-5,14.9-5,24.2s1.7,17.3,5.2,24.2A38,38,0,0,0,25.5,85.6q9.6,5.7,22.8,5.7c8.7,0,16.3-1.9,22.7-5.7A37.73,37.73,0,0,0,85.7,69.7c3.5-6.9,5.3-15,5.3-24.3s-1.8-17.3-5.3-24A37.18,37.18,0,0,0,71,5.7C64.6,1.9,57.1,0,48.3,0S31.9,1.9,25.5,5.7A36,36,0,0,0,10.7,21.3Zm14.9,8.8a33.12,33.12,0,0,0-3,14.6,31.76,31.76,0,0,0,3.1,14.6,23.35,23.35,0,0,0,8.8,9.6,26.43,26.43,0,0,0,13.8,3.4A26.27,26.27,0,0,0,62,68.9a22.9,22.9,0,0,0,8.9-9.6,32.49,32.49,0,0,0,3.2-14.7A32.08,32.08,0,0,0,70.9,30,22.13,22.13,0,0,0,62,20.5a26.27,26.27,0,0,0-13.7-3.4,26.65,26.65,0,0,0-13.8,3.4A21.75,21.75,0,0,0,25.6,30.1Z"/></clipPath></defs><path class="cls-2" d="M10.7,21.3c-3.4,6.8-5,14.9-5,24.2s1.7,17.3,5.2,24.2A38,38,0,0,0,25.5,85.6q9.6,5.7,22.8,5.7c8.7,0,16.3-1.9,22.7-5.7A37.73,37.73,0,0,0,85.7,69.7c3.5-6.9,5.3-15,5.3-24.3s-1.8-17.3-5.3-24A37.18,37.18,0,0,0,71,5.7C64.6,1.9,57.1,0,48.3,0S31.9,1.9,25.5,5.7A36,36,0,0,0,10.7,21.3Zm14.9,8.8a33.12,33.12,0,0,0-3,14.6,31.76,31.76,0,0,0,3.1,14.6,23.35,23.35,0,0,0,8.8,9.6,26.43,26.43,0,0,0,13.8,3.4A26.27,26.27,0,0,0,62,68.9a22.9,22.9,0,0,0,8.9-9.6,32.49,32.49,0,0,0,3.2-14.7A32.08,32.08,0,0,0,70.9,30,22.13,22.13,0,0,0,62,20.5a26.27,26.27,0,0,0-13.7-3.4,26.65,26.65,0,0,0-13.8,3.4A21.75,21.75,0,0,0,25.6,30.1Z"/><g class="cls-3"><path class="cls-4" d="M58.2,80.2H5.7v5.3H58.2a7.56,7.56,0,0,1-.5-2.7A8.56,8.56,0,0,1,58.2,80.2Z"/><path class="cls-4" d="M58.2,80.2a7.56,7.56,0,0,0-.5,2.7,8.6,8.6,0,0,0,.5,2.7"/></g><path class="cls-4" d="M76.3,80.2H26.8v5.3H76.3a7.56,7.56,0,0,1-.5-2.7C75.9,82,76.1,81.1,76.3,80.2Z"/><path class="cls-4" d="M84.1,74.7a8.2,8.2,0,0,0-7.8,5.6,7.56,7.56,0,0,0-.5,2.7,8.6,8.6,0,0,0,.5,2.7,8.28,8.28,0,1,0,7.8-11Z"/><path class="cls-4" d="M87.2,40.3a8.2,8.2,0,0,0-7.8,5.6h-61a30.39,30.39,0,0,0,.5,5.3H79.4a8.24,8.24,0,1,0,7.8-10.9Z"/><path class="cls-2" d="M25.4,5.5A37.48,37.48,0,0,0,10.7,21.3c-.2.5-.5,1-.7,1.5-2.9,6.5-4.3,14-4.3,22.6,0,9.2,1.7,17.3,5.2,24.2l23.6-.7a23.35,23.35,0,0,1-8.8-9.6,32,32,0,0,1-3.1-14.6,37,37,0,0,1,1.7-11.4,30.62,30.62,0,0,1,1.3-3.2,22.13,22.13,0,0,1,8.9-9.5C38.3,18.3,31.8,1.7,25.4,5.5Z"/><path class="cls-4" d="M52.4,62.6H0v5.3H52.5a7.56,7.56,0,0,1-.5-2.7A10.91,10.91,0,0,1,52.4,62.6Z"/><path class="cls-4" d="M60.2,57a8.2,8.2,0,0,0-7.8,5.6,7.56,7.56,0,0,0-.5,2.7,8.6,8.6,0,0,0,.5,2.7,8.28,8.28,0,1,0,7.8-11Z"/><rect class="cls-1" x="-12.3" y="-14.5" width="120" height="120"/></svg>