<svg id="Layer_1" data-name="Layer 1" xmlns="http://www.w3.org/2000/svg" xmlns:xlink="http://www.w3.org/1999/xlink" viewBox="0 0 376 91.31"><defs><style>.cls-1{fill:none;}.cls-2,.cls-4{fill:#465b85;}.cls-3{fill:#76bff6;}.cls-4{fill-rule:evenodd;}.cls-5{clip-path:url(#clip-path);}</style><clipPath id="clip-path"><path class="cls-1" d="M10.8,21.31c-3.4,6.8-5,14.9-5,24.2s1.7,17.3,5.2,24.2a38.1,38.1,0,0,0,14.6,15.9q9.6,5.7,22.8,5.7c8.7,0,16.3-1.9,22.7-5.7a37.73,37.73,0,0,0,14.7-15.9c3.5-6.9,5.3-15,5.3-24.3s-1.8-17.3-5.3-24A37.18,37.18,0,0,0,71.1,5.71C64.7,1.91,57.2,0,48.4,0S32,1.91,25.6,5.71A34.9,34.9,0,0,0,10.8,21.31Zm14.8,8.8a33.09,33.09,0,0,0-3,14.6,31.76,31.76,0,0,0,3.1,14.6,23.35,23.35,0,0,0,8.8,9.6,26.43,26.43,0,0,0,13.8,3.4A26.36,26.36,0,0,0,62,68.91a23,23,0,0,0,8.9-9.6,32.52,32.52,0,0,0,3.2-14.7A32.05,32.05,0,0,0,70.9,30a22.13,22.13,0,0,0-8.9-9.5,26.27,26.27,0,0,0-13.7-3.4,26.55,26.55,0,0,0-13.8,3.4A22.31,22.31,0,0,0,25.6,30.11Z"/></clipPath></defs><rect class="cls-1" x="-36.9" y="-29.49" width="450" height="150"/><path class="cls-2" d="M122.8,73.61a15,15,0,0,1-8.3-2.4,18.88,18.88,0,0,1-5.7-5.9V88H104V36.11h4.3v7.1a16.66,16.66,0,0,1,5.9-5.6,14.52,14.52,0,0,1,7.8-2.2,14.92,14.92,0,0,1,7,1.6,16.06,16.06,0,0,1,5.5,4.2,17.84,17.84,0,0,1,3.6,6.1,19.13,19.13,0,0,1,1.3,7.1,21.7,21.7,0,0,1-2.1,9.5,17.1,17.1,0,0,1-5.8,6.9A13,13,0,0,1,122.8,73.61Zm-1.3-4.2a12,12,0,0,0,5.4-1.2,12.25,12.25,0,0,0,4.1-3.4,14.8,14.8,0,0,0,2.7-4.7,17.18,17.18,0,0,0,.9-5.5,15.62,15.62,0,0,0-1.1-5.7,13.14,13.14,0,0,0-2.9-4.7,15.58,15.58,0,0,0-4.4-3.2,11.87,11.87,0,0,0-5.4-1.2,10.28,10.28,0,0,0-3.8.7,18.89,18.89,0,0,0-3.8,2,11.81,11.81,0,0,0-3,2.9,7.72,7.72,0,0,0-1.5,3.5v11.3a21.07,21.07,0,0,0,3,4.7,14.26,14.26,0,0,0,4.4,3.3A13.79,13.79,0,0,0,121.5,69.41Z"/><path class="cls-2" d="M162.1,73.61a17.8,17.8,0,0,1-13.2-5.7,22.72,22.72,0,0,1-3.9-6.1,21.17,21.17,0,0,1,1-16.9,18.22,18.22,0,0,1,6.6-6.9,17.68,17.68,0,0,1,9.5-2.6,17.49,17.49,0,0,1,9.5,2.6,19,19,0,0,1,8.7,16.2v1.1a2,2,0,0,1-.1.8H148.7a17,17,0,0,0,2.2,7.1,16.47,16.47,0,0,0,4.9,4.9,12.67,12.67,0,0,0,6.6,1.8,13.72,13.72,0,0,0,6.8-1.8,9.52,9.52,0,0,0,4.5-4.8l4.2,1.1a14.18,14.18,0,0,1-3.5,4.7,17.91,17.91,0,0,1-5.5,3.3A17.37,17.37,0,0,1,162.1,73.61Zm-13.5-20.8h27.2a15.09,15.09,0,0,0-2.2-7.1,12.24,12.24,0,0,0-4.9-4.7,13.38,13.38,0,0,0-18.1,4.8A14.7,14.7,0,0,0,148.6,52.81Z"/><path class="cls-2" d="M217.2,72.91h-4.8V52.41c0-4.3-.6-7.5-1.9-9.5a6.64,6.64,0,0,0-6-3,12.71,12.71,0,0,0-5.6,1.4A15.86,15.86,0,0,0,194,45a13.64,13.64,0,0,0-3,5.4v22.5h-4.8V36.11h4.4v8.3a17.14,17.14,0,0,1,3.9-4.7,18.33,18.33,0,0,1,5.4-3.2,16.54,16.54,0,0,1,6.3-1.1,12,12,0,0,1,5.2,1.1,9.4,9.4,0,0,1,3.4,3.2,14.09,14.09,0,0,1,1.8,5,32.23,32.23,0,0,1,.6,6.5v21.7Z"/><path class="cls-3" d="M262.1,32.91H246.9v40H235.4v-40H220.1V22.81h42Z"/><path class="cls-3" d="M276.6,73.41a22.54,22.54,0,0,1-8.4-1.5,20.87,20.87,0,0,1-6.3-4.1,17.42,17.42,0,0,1-3.9-6,19.69,19.69,0,0,1-1.3-7.2,20.78,20.78,0,0,1,2.3-9.7,18.55,18.55,0,0,1,6.8-7.1,20.17,20.17,0,0,1,10.7-2.7,19.53,19.53,0,0,1,10.6,2.7,18.22,18.22,0,0,1,6.8,7,19.94,19.94,0,0,1,2.3,9.3,13.47,13.47,0,0,1-.1,2c0,.6-.1,1.1-.1,1.6H268.7a8.69,8.69,0,0,0,1.3,4.1,7.85,7.85,0,0,0,6.9,3.4,9.42,9.42,0,0,0,4.7-1.2,6.87,6.87,0,0,0,3.1-3.2l9.6,2.7a16.26,16.26,0,0,1-4,5.1,17.87,17.87,0,0,1-6,3.4A19.72,19.72,0,0,1,276.6,73.41Zm-8.2-22.5h16a9.93,9.93,0,0,0-1.3-4,6.63,6.63,0,0,0-2.8-2.7,7.51,7.51,0,0,0-3.9-1,7,7,0,0,0-3.9,1,6.94,6.94,0,0,0-2.7,2.7A8.3,8.3,0,0,0,268.4,50.91Z"/><path class="cls-3" d="M319.6,73.41a22.54,22.54,0,0,1-8.4-1.5,19.27,19.27,0,0,1-6.3-4.2,18.86,18.86,0,0,1-3.9-6.1,19.8,19.8,0,0,1-1.3-7.3,20.1,20.1,0,0,1,2.3-9.4,19,19,0,0,1,6.8-7,20.17,20.17,0,0,1,10.7-2.7,20,20,0,0,1,10.7,2.7,16.4,16.4,0,0,1,6.6,7l-11,3.3a7.21,7.21,0,0,0-6.4-3.5,7.6,7.6,0,0,0-4.2,1.2,9.59,9.59,0,0,0-3,3.3,11.22,11.22,0,0,0-1.1,5.1,12,12,0,0,0,1.1,5.1,8.35,8.35,0,0,0,3,3.4,7.36,7.36,0,0,0,4.1,1.2,7.68,7.68,0,0,0,2.6-.4,10.64,10.64,0,0,0,2.3-1.3,7.29,7.29,0,0,0,1.6-1.9l11,3.4a15.81,15.81,0,0,1-3.9,5.1,16.81,16.81,0,0,1-5.8,3.4A24.12,24.12,0,0,1,319.6,73.41Z"/><path class="cls-3" d="M376.2,72.91H364.9V52a8,8,0,0,0-1.5-5.3,4.68,4.68,0,0,0-3.8-1.7,7.35,7.35,0,0,0-2.9.8,11.52,11.52,0,0,0-2.9,2.2,9,9,0,0,0-2,3.4v21.4H340.5V21.41h11.3V42a14.33,14.33,0,0,1,5.3-5.1,15.17,15.17,0,0,1,7.4-1.8,11.49,11.49,0,0,1,6,1.3,8.81,8.81,0,0,1,3.5,3.4,14.41,14.41,0,0,1,1.6,4.5,26.59,26.59,0,0,1,.4,4.8v23.8Z"/><path class="cls-4" d="M10.8,21.31c-3.4,6.8-5,14.9-5,24.2s1.7,17.3,5.2,24.2a38.1,38.1,0,0,0,14.6,15.9q9.6,5.7,22.8,5.7c8.7,0,16.3-1.9,22.7-5.7a37.73,37.73,0,0,0,14.7-15.9c3.5-6.9,5.3-15,5.3-24.3s-1.8-17.3-5.3-24A37.18,37.18,0,0,0,71.1,5.71C64.7,1.91,57.2,0,48.4,0S32,1.91,25.6,5.71A34.9,34.9,0,0,0,10.8,21.31Zm14.8,8.8a33.09,33.09,0,0,0-3,14.6,31.76,31.76,0,0,0,3.1,14.6,23.35,23.35,0,0,0,8.8,9.6,26.43,26.43,0,0,0,13.8,3.4A26.36,26.36,0,0,0,62,68.91a23,23,0,0,0,8.9-9.6,32.52,32.52,0,0,0,3.2-14.7A32.05,32.05,0,0,0,70.9,30a22.13,22.13,0,0,0-8.9-9.5,26.27,26.27,0,0,0-13.7-3.4,26.55,26.55,0,0,0-13.8,3.4A22.31,22.31,0,0,0,25.6,30.11Z"/><g class="cls-5"><path class="cls-3" d="M58.2,80.21H5.7v5.3H58.2a7.6,7.6,0,0,1-.5-2.7A13.42,13.42,0,0,1,58.2,80.21Z"/><path class="cls-3" d="M58.2,80.21a7.52,7.52,0,0,0-.5,2.7,8.6,8.6,0,0,0,.5,2.7"/></g><path class="cls-3" d="M76.4,80.21H26.9v5.3H76.4a7.6,7.6,0,0,1-.5-2.7A8.5,8.5,0,0,1,76.4,80.21Z"/><path class="cls-3" d="M84.2,74.71a8.19,8.19,0,0,0-7.8,5.6,7.52,7.52,0,0,0-.5,2.7,8.6,8.6,0,0,0,.5,2.7,8.28,8.28,0,1,0,7.8-11Z"/><path class="cls-3" d="M87.2,40.31a8.19,8.19,0,0,0-7.8,5.6H18.5a30.48,30.48,0,0,0,.5,5.3H79.4a8.34,8.34,0,0,0,7.8,5.6,8.25,8.25,0,0,0,0-16.5Z"/><path class="cls-4" d="M25.5,5.51a37.66,37.66,0,0,0-14.8,15.8c-.2.5-.5,1-.7,1.5-2.9,6.5-4.3,14-4.3,22.6,0,9.2,1.7,17.3,5.2,24.2l23.6-.7a23.35,23.35,0,0,1-8.8-9.6,32,32,0,0,1-3.1-14.6,37,37,0,0,1,1.7-11.4,30.62,30.62,0,0,1,1.3-3.2,22.13,22.13,0,0,1,8.9-9.5C38.3,18.31,31.8,1.71,25.5,5.51Z"/><path class="cls-3" d="M52.5,62.61H0v5.3H52.5a7.6,7.6,0,0,1-.5-2.7A7.46,7.46,0,0,1,52.5,62.61Z"/><path class="cls-3" d="M60.3,57a8.19,8.19,0,0,0-7.8,5.6,7.52,7.52,0,0,0-.5,2.7,8.6,8.6,0,0,0,.5,2.7,8.34,8.34,0,0,0,7.8,5.6,8.18,8.18,0,0,0,8.2-8.14v-.06A8.27,8.27,0,0,0,60.34,57Z"/></svg>