<svg id="interface-research" xmlns="http://www.w3.org/2000/svg" viewBox="0 0 2842.69 2105.96"><defs><style>.cls-1,.cls-2,.cls-5,.cls-6{fill:none;}.cls-2,.cls-3,.cls-4,.cls-5,.cls-6,.cls-7,.cls-8{stroke:#1a1a1a;stroke-linecap:round;stroke-linejoin:round;}.cls-2{stroke-width:5.52px;}.cls-3{fill:#fff;}.cls-3,.cls-5,.cls-6,.cls-7,.cls-8{stroke-width:3.68px;}.cls-4,.cls-8{fill:#1c0311;}.cls-4{stroke-width:1.84px;}.cls-5{stroke-dasharray:22.08;}.cls-7{fill:#54cafa;}</style></defs><rect class="cls-1" x="-105.11" y="-361.62" width="3000" height="3000"/><path class="cls-2" d="M1805.74,2052c-30.52-71.27,28.13-205.21,103.27-261.58,92.87-69.66,259.71-13.34,273.78-4.58,5.32-12.32,89.73-198.76,261.6-205.72,133-5.38,194.38,41.47,246.17,217.19,4.4-1.94,70.42,2.32,112.91,47,51,53.58,46.17,176.48-.2,255H1859.65C1826.11,2087.56,1812.16,2067,1805.74,2052Z"/><path class="cls-3" d="M2286.93,1834.79c-104.63-80.29-225.09-54.12-241.5-50.26-14.57-113.27-95.69-202.68-197.36-221.88-114.37-21.6-200.94,55.8-210.86,65-34.27-70.76-110.53-202.95-259.88-301.57-167.11-110.33-475.22-211.33-698.75-51.48C559.13,1360,509,1487.57,487.34,1568.78c-143.78-58.31-309.93-3.15-389.83,128.71-78.92,130.26-52.66,300.7,62.52,401.79H2396C2397,2091.21,2412.92,1931.47,2286.93,1834.79Z"/><rect class="cls-3" x="605.03" y="1.86" width="1699.07" height="1158.45" rx="65.4"/><path class="cls-4" d="M2265.4,133.05A104.82,104.82,0,0,0,2160.59,28.24H748.53A104.81,104.81,0,0,0,643.72,133.05V149H2265.4Z"/><path class="cls-3" d="M643.72,149v880.15a104.8,104.8,0,0,0,104.81,104.81H2160.59a104.81,104.81,0,0,0,104.81-104.81V149Z"/><line class="cls-5" x1="643.72" y1="281.36" x2="2265.4" y2="281.36"/><rect class="cls-4" x="1491.33" y="193.1" width="165.49" height="47.81"/><rect class="cls-3" x="1715.67" y="193.1" width="165.49" height="47.81"/><rect class="cls-3" x="1940.01" y="193.1" width="165.49" height="47.81"/><rect class="cls-3" x="722.71" y="193.1" width="313.72" height="387.99"/><rect class="cls-3" x="796.24" y="400.35" width="171.86" height="15.74"/><rect class="cls-3" x="771.31" y="446.27" width="221.72" height="15.74"/><rect class="cls-3" x="771.31" y="486.94" width="221.72" height="15.74"/><circle class="cls-4" cx="879.57" cy="295.61" r="54.71"/><rect class="cls-4" x="771.31" y="1055.86" width="210.87" height="37.19"/><path class="cls-4" d="M2147.79,1133.93H1101.51v-78.07H2262C2240.51,1118.1,2197.83,1134,2147.79,1133.93Z"/><line class="cls-5" x1="1101.51" y1="148.97" x2="1101.51" y2="1133.93"/><rect class="cls-5" x="1165.86" y="387.09" width="255.65" height="254.36"/><rect class="cls-5" x="1529" y="387.09" width="255.65" height="254.36"/><rect class="cls-5" x="1892.14" y="387.09" width="255.65" height="254.36"/><rect class="cls-5" x="1165.86" y="720.94" width="255.65" height="254.36"/><rect class="cls-5" x="1529" y="720.94" width="255.65" height="254.36"/><rect class="cls-5" x="1892.14" y="720.94" width="255.65" height="254.36"/><path class="cls-3" d="M1405.63,622.07c-71.57,4.08-158.09-2.32-179.08-21.65s-24.23-29.91-30.29-58.22c-8.44-39.46-11-89.55-12.35-141.85h221.72Z"/><path class="cls-3" d="M1194.53,533.49c8.64,36,58.26,36.75,58.26,36.75s1,30.63,23.74,47.09m491.16,4.74c-71.58,4.08-158.09-2.32-179.08-21.65s-24.23-29.91-30.29-58.22c-8.45-39.46-11-89.55-12.35-141.85h221.72Z"/><path class="cls-3" d="M1556.59,533.49c8.64,36,58.26,36.75,58.26,36.75s1,30.63,23.74,47.09m491.15,4.74c-71.57,4.08-158.08-2.32-179.08-21.65s-24.22-29.91-30.28-58.22c-8.45-39.46-11-89.55-12.35-141.85h221.71Z"/><path class="cls-3" d="M1918.64,533.49c8.65,36,58.26,36.75,58.26,36.75s1,30.63,23.74,47.09m-595,341.06c-71.57,4.08-158.09-2.32-179.08-21.65s-24.23-29.9-30.29-58.21c-8.44-39.47-11-89.56-12.35-141.85h221.72Z"/><path class="cls-3" d="M1194.53,869.81c8.64,36.06,58.26,36.76,58.26,36.76s1,30.62,23.74,47.08m491.16,4.74c-71.58,4.08-158.09-2.32-179.08-21.65s-24.23-29.9-30.29-58.21c-8.45-39.47-11-89.56-12.35-141.85h221.72Z"/><path class="cls-3" d="M1556.59,869.81c8.64,36.06,58.26,36.76,58.26,36.76s1,30.62,23.74,47.08m491.15,4.74c-71.57,4.08-158.08-2.32-179.08-21.65s-24.22-29.9-30.28-58.21c-8.45-39.47-11-89.56-12.35-141.85h221.71Z"/><path class="cls-3" d="M1918.64,869.81c8.65,36.06,58.26,36.76,58.26,36.76s1,30.62,23.74,47.08"/><line class="cls-6" x1="1.89" y1="2099.28" x2="2657.14" y2="2099.28"/><path class="cls-3" d="M2082.82,1258.94c14.1-28.81,8.58-47.2-11.65-43.52s-139.75,57.61-152,71.71c-7.57,8.7.74,48.12,8.22,77,.7-.35,1.39-.68,2.08-1,25.33-7.91,51.68-14.12,78.18-17-1.38-5.39-2.81-11-4.23-16.75C2007.38,1321.46,2068.72,1287.74,2082.82,1258.94Z"/><path class="cls-4" d="M1927.39,1364.15c4.63,17.91,8.94,31.78,8.94,31.78l81.52-11.34s-4.73-17.14-10.2-38.42c-26.5,2.9-52.85,9.11-78.18,17C1928.78,1363.47,1928.09,1363.8,1927.39,1364.15Z"/><path class="cls-3" d="M1973.1,1834.49s-72.32-94.4-42.9-446.22c1.22-17.17,46.58-30.65,84.58-30.65,35.55,50.26,117.69,381.25,121.37,427.83s-12.26,105.62-15.94,105.52S1973.1,1834.49,1973.1,1834.49Z"/><path class="cls-5" d="M1972.62,1412.5s64.7,437.47,106.68,485.06"/><path class="cls-4" d="M2380.77,1425.26c-4.81,7.29-7.68,12-7.68,12S2431,1487,2432.81,1487c1.39,0,14.31-22.71,26.36-33.84C2440.73,1430.41,2411.19,1417.63,2380.77,1425.26Z"/><path class="cls-3" d="M2606.27,1455.08c-15.94-19-113.39-105.43-146.49-106-25.45-.47-63,52-79,76.22,30.42-7.63,60,5.15,78.4,27.85,3.91-3.6,7.73-6,11-6,13.48,0,52.71,33.1,101.13,45.36S2622.21,1474.08,2606.27,1455.08Z"/><path class="cls-3" d="M2380.1,1432.4c-246.41,170.39-278.28,420.79-278.28,420.79s-145.88-61.61-279.5-76.32-280.72,88.67-280.72,88.67l.62,14.8,9.18,218.94H1864c52.71,0,297.89,22.06,349.38-46.59s236.59-570,236.59-581.06S2435.26,1431.17,2380.1,1432.4Z"/><path class="cls-5" d="M1651.61,1985.81s377.84-26.24,473.61,0c74.78-150.87,231.54-469.15,290.91-512"/><path class="cls-4" d="M1546.66,1884.14s11.15-18.3,34.11,27.91,38.7,157.23-3.94,190.6l-32.8-2.34Z"/><path class="cls-7" d="M823.9,1962.47s123.14-120.79,150-164.17c27.51-27.42,10.81-122.8,100.55-133.7,0,0,100.85-32.5,291.06,77.78,156.56,96.89,186.56,134.35,200.33,156.81s47.51,131.55-7.73,200.89c-183,3.53-475.64-14.07-513.71-15"/><path class="cls-3" d="M832.43,1735.17s25.45-39,4.15-65.8-34.33-61.83-21-82.59,34.75-21,47.16-1.86,72,84.88,49.22,112.77-43.38,71.64-43.38,71.64Z"/><path class="cls-7" d="M890.23,1999.42c-81.67-29.45-18.5-200.78-12.28-222.18s-29.78-39.62-38.09-48.19-16.85.66-16.85.66-174.27,224-147.87,310.39,259.66,51.42,259.66,51.42,134,10.78,140.77,5.92,0-60.7,0-60.7"/><path class="cls-3" d="M896.31,1457.23s-72.69,101-41.19,184.42,126.57,20.78,126.57,20.78"/><path class="cls-3" d="M952,1677.08s18.76,106.73,37.18,132.27c64.23,14.64,94.66-60.78,92.92-136.16-26.42-16.75-50.91-77.74-50.91-77.74"/><polygon class="cls-4" points="977.45 1664.55 953.34 1688.83 952 1676.2 977.45 1664.55"/><path class="cls-4" d="M891.4,1367.71c-10.11-3.74-58.78,92,29.14,128.44,25.72,14.32,33.58,11.56,25.66,28.43s-6.11,34,4.75,36,29.31-12.19,36.89-22.31,33.43,7.73,28.61,25.64-23.18,26.6-22.29,33.62c10,19.54,15,39,55,26.66s36.87-84,32-106.77-16-62.86-74.16-76.21S901.52,1371.45,891.4,1367.71Z"/><path class="cls-3" d="M937.58,2035.84c-35.34,13.81-60,63.08-42.94,64.71,12.08,1.15,72.12.8,106.29.5-2.94-24.34-8-47.83-22.84-68.29C966.26,2030.47,952,2030.2,937.58,2035.84Z"/><path class="cls-7" d="M1218.44,1747.26s243.38,175.35,212.49,278.7-393.91,74.83-407.72,74.59c-14.32-13.1-37.7-92-28.11-97.9s163.4-1.84,175.75-15.21,16.66-20.9-25.21-56-88.52-121.65-17.65-167.69c19.11-5.35,23.71-5.53,23.71-5.53m-172.91,86.55s-16.23,62.6,11.51,105.67"/><path class="cls-8" d="M1007.36,2043.67a93.85,93.85,0,0,0-29.27-10.91c14.86,20.46,19.9,44,22.84,68.29,14.17-.13,23.9-.25,23.9-.25S1014.3,2047.31,1007.36,2043.67Z"/><rect class="cls-4" x="367.2" y="2063.11" width="253.76" height="34.32"/><path class="cls-3" d="M271.37,1831.23c1.84,3.68,119.74,219.47,119.74,219.47L366,2061.58,248.3,1846.49Z"/><circle class="cls-3" cx="367.2" cy="848.12" r="135.35"/><path class="cls-4" d="M387.11,820.49a31.72,31.72,0,1,0-31.92,0,64.33,64.33,0,0,0-48.33,62.29v31.05H435.43V882.78A64.32,64.32,0,0,0,387.11,820.49Z"/><circle class="cls-4" cx="2475.5" cy="706.26" r="62.97"/><circle class="cls-3" cx="2547.43" cy="929.26" r="127.03"/><path class="cls-3" d="M389.05,410.25H123.16a46.38,46.38,0,0,0-46.38,46.37v55.85a46.38,46.38,0,0,0,46.38,46.38H335.51c9.31,13.55,25,35.66,38.62,54.64,6.87,9.6,22,3.73,20.61-8l-5.54-46.65a46.37,46.37,0,0,0,46.23-46.38V456.62a46.37,46.37,0,0,0-46.38-46.37Z"/><rect class="cls-3" x="130.98" y="440.36" width="237.46" height="20.99"/><rect class="cls-3" x="130.98" y="493.28" width="237.46" height="20.99"/><path class="cls-4" d="M938.63,937.32v-20H918.05a37.17,37.17,0,0,0-3.46-8.35l14.55-14.55L915,880.37l-14.54,14.55a36.71,36.71,0,0,0-8.35-3.46V870.89H872.2v20.57a36.71,36.71,0,0,0-8.35,3.46l-14.54-14.55-14.11,14.1L849.75,909a37.17,37.17,0,0,0-3.46,8.35H825.72v20h20.57a37.09,37.09,0,0,0,3.46,8.34L835.2,960.21l14.11,14.11,14.54-14.55a37.17,37.17,0,0,0,8.35,3.46v20.56h19.94V963.23a37.17,37.17,0,0,0,8.35-3.46L915,974.32l14.11-14.11-14.55-14.55a37.09,37.09,0,0,0,3.46-8.34Zm-39.19,0a19.94,19.94,0,0,1-36.53-15.14,19.24,19.24,0,0,1,2-4.81,20,20,0,0,1,7.3-7.3,19.58,19.58,0,0,1,4.8-2,20.1,20.1,0,0,1,10.33,0,19.65,19.65,0,0,1,4.81,2,20,20,0,0,1,7.3,7.3,19.24,19.24,0,0,1,2,4.81,19.55,19.55,0,0,1,.68,5.16,19.91,19.91,0,0,1-.67,5.16A19.56,19.56,0,0,1,899.44,937.32Z"/></svg>