<svg xmlns="http://www.w3.org/2000/svg" viewBox="0 0 3000 3000" id="website-interface"><g data-name="Layer 2"><g data-name="Layer 1"><ellipse cx="506.927" cy="2518.397" fill="#fff" stroke="#1a1a1a" stroke-linecap="round" stroke-linejoin="round" stroke-width="3.917" rx="434.927" ry="172.09"></ellipse><path fill="#fff" stroke="#1a1a1a" stroke-linecap="round" stroke-linejoin="round" stroke-width="3.917" d="M962.685,2312.30914c10.82968,7.44489,21.67066,15.0062,33.00415,21.794,44.03511,26.37346,93.16071,47.05375,145.471,37.83939,1747.74531,89.45822,1723.06083-259.7456,1723.06083-259.7456l-2541.59662-.00464s163.19091,80.67028,209.78122,108.51362c63.698,38.06724,142.70346,61.464,217.54828,64.02451a396.73046,396.73046,0,0,0,58.49471-2.29551c19.28763-2.19956,39.33085-10.0932,58.4188-11.02695C901.1495,2269.731,935.91518,2293.90618,962.685,2312.30914Z"></path><circle cx="2723.307" cy="926.558" r="98.276" fill="#fff" stroke="#1a1a1a" stroke-linecap="round" stroke-linejoin="round" stroke-width="3.917"></circle><rect width="95.227" height="15.428" x="2674.895" y="872.515" fill="#1c0311" stroke="#1a1a1a" stroke-linecap="round" stroke-linejoin="round" stroke-width="1.959"></rect><rect width="95.227" height="15.428" x="2674.895" y="920.23" fill="#1c0311" stroke="#1a1a1a" stroke-linecap="round" stroke-linejoin="round" stroke-width="1.959"></rect><rect width="95.227" height="15.428" x="2674.895" y="965.172" fill="#1c0311" stroke="#1a1a1a" stroke-linecap="round" stroke-linejoin="round" stroke-width="1.959"></rect><path fill="none" stroke="#1a1a1a" stroke-linecap="round" stroke-linejoin="round" stroke-width="5.876" d="M1353.92322,2111.77769c472.3132-3.60887,949.12644,2.89163,1421.43964-.71723,75.82891-78.27776,92.41409-192.07828,44.27933-276.30313-52.89341-92.5514-159.49183-106.62033-171.80424-108.04155-63.66692-195.77935-247.93644-299.34133-396.7427-260.36251-146.96044,38.49517-204.149,201.56121-208.99808,216.08318-106.01488-37.88488-212.12682-14.3265-262.13411,53.13521-26.76667,36.10873-31.82921,77.19947-31.88077,104.49918C1634.93156,1628.72454,1434.06412,1568.462,1344.2547,1627.53c-68.74644,45.2149-89.73663,171.74168-56.67787,301.09954-25.03428,5.28379-73.05561,18.97952-81.47377,49.59284C1195.19853,2017.87927,1247.60322,2070.90129,1353.92322,2111.77769Z"></path><path fill="#fff" stroke="#1a1a1a" stroke-linecap="round" stroke-linejoin="round" stroke-width="3.917" d="M393.70054,2110.4641h1964.444a1277.55018,1277.55018,0,0,0-275.84111-199.91022c-122.35878-65.66562-473.76988-254.25557-761.36063-104.20864-53.27541,27.79559-122.89192,76.88083-187.14929,168.0097-32.92694-28.58184-149.83916-122.897-319.00565-121.2222C546.57981,1855.7881,401.37,2097.2159,393.70054,2110.4641Z"></path><line x1="276.549" x2="2928" y1="2112.192" y2="2112.192" fill="none" stroke="#1a1a1a" stroke-linecap="round" stroke-linejoin="round" stroke-width="5.876"></line><path fill="#fff" stroke="#1a1a1a" stroke-linecap="round" stroke-linejoin="round" stroke-width="3.917" d="M1423.02533,2090.61486c0,4.25341,804.15768-12.76023,804.15768-12.76023l325.06863,90.385-762.72416,20.20369Z"></path><polygon fill="#1c0311" stroke="#1a1a1a" stroke-linecap="round" stroke-linejoin="round" stroke-width="1.959" points="1423.025 2123.655 1423.025 2090.615 1789.527 2188.443 1789.527 2265.005 1423.025 2123.655"></polygon><polygon fill="#fff" stroke="#1a1a1a" stroke-linecap="round" stroke-linejoin="round" stroke-width="3.917" points="2552.252 2168.24 2552.252 2238.066 1789.527 2265.005 1789.527 2188.443 2552.252 2168.24"></polygon><polygon fill="#1c0311" stroke="#1a1a1a" stroke-linecap="round" stroke-linejoin="round" stroke-width="1.959" points="1730.689 1972.228 1687.446 2090.615 1741.126 2103.152 1789.527 1965.139 1730.689 1972.228"></polygon><polygon fill="#fff" stroke="#1a1a1a" stroke-linecap="round" stroke-linejoin="round" stroke-width="3.917" points="2146.105 1958.759 2146.105 2090.615 1741.126 2103.152 1789.527 1965.139 2146.105 1958.759"></polygon><path fill="#1c0311" stroke="#1a1a1a" stroke-linecap="round" stroke-linejoin="round" stroke-width="1.959" d="M1439.32081,1988.06777s-27.68329,2.58777-80.92038,4.71169-83.04987-56.95551-83.04987-56.95551L1137.21138,915.95146c-5.601-39.29254,9.653-62.97251,43.34056-77.902,0,0,27.56531-12.73658,55.032-19.93767"></path><path fill="#fff" stroke="#1a1a1a" stroke-linecap="round" stroke-linejoin="round" stroke-width="3.917" d="M2465.1794,1965.29659,1447.01431,1990.158c-66.32823,1.61959-127.64335-49.73914-136.41814-114.5003L1180.43627,915.03c-8.25219-60.90418,37.892-107.51147,102.56552-104.32769L2278.124,859.69079c56.47106,2.78,109.7946,50.61134,119.51348,107.028L2550.57315,1854.488C2560.85922,1914.19716,2522.82225,1963.88907,2465.1794,1965.29659Z"></path><path fill="#fff" stroke="#1a1a1a" stroke-linecap="round" stroke-linejoin="round" stroke-width="3.917" d="M2356.26282 984.10651c-7.39478-43.264-48.29794-79.87219-91.60271-81.88l-951.6169-44.12216c-49.23118-2.28262-84.21832 33.3981-77.85456 79.82668l1.61938 11.81466 1121.33631 45.36888zM1250.80307 1051.85039l109.48621 798.7874c6.74124 49.18265 53.29612 88.28955 103.67459 87.22392l971.79714-20.5559c44.133-.93352 73.37793-38.77935 65.57624-84.42406l-126.93639-742.65648z"></path><polygon fill="#1c0311" stroke="#1a1a1a" stroke-linecap="round" stroke-linejoin="round" stroke-width="1.959" points="2358.144 995.115 1236.808 949.746 1250.803 1051.85 2374.401 1090.225 2358.144 995.115"></polygon><polygon fill="#fff" stroke="#1a1a1a" stroke-linecap="round" stroke-linejoin="round" stroke-width="3.917" points="1488.393 1027.172 1322.689 1021.17 1317.604 984.69 1483.18 991.062 1488.393 1027.172"></polygon><polygon fill="#fff" stroke="#1a1a1a" stroke-linecap="round" stroke-linejoin="round" stroke-width="3.917" points="1704.955 1035.016 1543.767 1029.178 1538.511 993.191 1699.579 999.39 1704.955 1035.016"></polygon><polygon fill="#fff" stroke="#1a1a1a" stroke-linecap="round" stroke-linejoin="round" stroke-width="3.917" points="2197.882 1052.87 2046.739 1047.396 2041.119 1012.533 2192.16 1018.346 2197.882 1052.87"></polygon><path fill="#fff" stroke="#1a1a1a" stroke-linecap="round" stroke-linejoin="round" stroke-width="3.917" d="M2312.78909,1039.99827c-2.28741-13.50984-15.04265-24.87846-28.51311-25.40338-13.49459-.52587-22.60917,10.02581-20.33441,23.57877,2.27663,13.5641,15.09118,24.96009,28.59844,25.44277C2306.02309,1064.09825,2315.07837,1053.51919,2312.78909,1039.99827Z"></path><polygon fill="#fff" stroke="#1a1a1a" stroke-linecap="round" stroke-linejoin="round" stroke-width="3.917" points="2170.041 1836.146 1411.048 1847.862 1306.151 1090.915 2053.821 1114.718 2170.041 1836.146"></polygon><polygon fill="none" stroke="#1a1a1a" stroke-dasharray="23.503" stroke-linecap="round" stroke-linejoin="round" stroke-width="3.917" points="1799.799 1841.861 1411.048 1847.862 1306.151 1090.915 1688.903 1103.1 1799.799 1841.861"></polygon><polygon fill="#fff" stroke="#1a1a1a" stroke-linecap="round" stroke-linejoin="round" stroke-width="3.917" points="2501.022 1831.037 2212.218 1835.495 2095.416 1116.043 2380.364 1125.114 2501.022 1831.037"></polygon><polygon fill="none" stroke="#1a1a1a" stroke-dasharray="23.503" stroke-linecap="round" stroke-linejoin="round" stroke-width="3.917" points="2111.304 1471.538 1358.006 1465.101 1306.151 1090.915 2053.821 1114.718 2111.304 1471.538"></polygon><polygon fill="#fff" stroke="#1a1a1a" stroke-linecap="round" stroke-linejoin="round" stroke-width="3.917" points="2362.108 1220.096 2149.588 1214.685 2138.856 1149.048 2351.112 1155.364 2362.108 1220.096"></polygon><polygon fill="#fff" stroke="#1a1a1a" stroke-linecap="round" stroke-linejoin="round" stroke-width="3.917" points="2384.549 1352.192 2171.489 1348.639 2160.671 1282.471 2373.464 1286.943 2384.549 1352.192"></polygon><polygon fill="#fff" stroke="#1a1a1a" stroke-linecap="round" stroke-linejoin="round" stroke-width="3.917" points="2407.169 1485.344 2193.568 1483.68 2182.662 1416.974 2395.996 1419.573 2407.169 1485.344"></polygon><polygon fill="#1c0311" stroke="#1a1a1a" stroke-linecap="round" stroke-linejoin="round" stroke-width="1.959" points="2429.971 1619.565 2215.827 1619.82 2204.832 1552.571 2418.708 1553.265 2429.971 1619.565"></polygon><polygon fill="#1c0311" stroke="#1a1a1a" stroke-linecap="round" stroke-linejoin="round" stroke-width="1.959" points="2452.957 1754.869 2238.268 1757.075 2227.183 1689.274 2441.603 1688.034 2452.957 1754.869"></polygon><path fill="#1c0311" stroke="#1a1a1a" stroke-linecap="round" stroke-linejoin="round" stroke-width="1.959" d="M1114.19418,2130.3551c-12.8132-12.077-26.23846-22.17588-26.23846-22.17588s-58.20548,31.85871-53.23723,37.52246c2.02077,2.3029,3.21908,15.25668,3.835,32.95923C1070.63523,2178.40939,1097.78606,2158.14477,1114.19418,2130.3551Z"></path><path fill="#fff" stroke="#1a1a1a" stroke-linecap="round" stroke-linejoin="round" stroke-width="3.917" d="M1136.93432 2160.56912c-1.30829-8.15146-11.80138-19.90311-22.74014-30.214-16.40812 27.78967-43.55895 48.05429-75.64072 48.30581.899 25.83751.55659 61.792-.285 89.52026-1.42018 46.72639 17.0355 81.41709 49.68726 77.87715C1120.60844 2342.51839 1139.77372 2178.26856 1136.93432 2160.56912zM916.17762 1690.47469c9.93759 147.25853 134.51239 352.21691 152.08063 376.642s31.94226 40.88549 33.007 52.56705-33.53937 46.19529-66.54637 46.19529c-106.47419-20.17725-261.92651-253.80858-390.76028-407.79285s64.94925-526.37845 87.66375-570.27282 59.62555-33.98274 59.62555-33.98274l270.79342 49.55816"></path><path fill="#1c0311" stroke="#1a1a1a" stroke-linecap="round" stroke-linejoin="round" stroke-width="1.959" d="M565.979,2496.0597c4.20986-22.50057,5.58605-43.4834,11.94579-54.84821,10.28556-18.38012-58.68461-14.834-58.68461-14.834s-9.3866,37.11171-20.84847,54.56728C516.27257,2494.728,541.4973,2498.35518,565.979,2496.0597Z"></path><path fill="#fff" stroke="#1a1a1a" stroke-linecap="round" stroke-linejoin="round" stroke-width="3.917" d="M498.39166 2480.9448a28.10311 28.10311 0 01-6.047 6.97922c-14.01247 10.57868-115.22891 56.113-129.41256 127.68036 2.89774 21.302 33.10985 34.24839 83.78024 6.82572 50.67038-27.4229 89.08416-50.43368 106.38552-84.86952 6.60456-13.1441 10.28173-27.61083 12.8811-41.50088C541.4973 2498.35518 516.27257 2494.728 498.39166 2480.9448zM832.41792 1359.851s-68.14349 125.31134-157.58181 327.13515-184.73272 767.21519-177.8119 781.55166 42.94459 20.53124 67.07874 7.78771c79.50073-83.54089 252.69875-519.65269 298.12774-647.088 151.90318-114.69174 272.57393-382.3058 282.51153-465.84669s-32.65209-150.09043-32.65209-150.09043l-73.89507-23.1619"></path><path fill="#1c0311" stroke="#1a1a1a" stroke-linecap="round" stroke-linejoin="round" stroke-width="1.959" d="M763.13664,1168.59351s20.94354,38.39385,63.52872,38.39385,128.45368-9.07553,158.47275,7.6793S1103.12,1246.082,1120.573,1240.497l-1.39624-22.33977-328.81349-79.58543-27.2266,18.02141Z"></path><path fill="#54cafa" stroke="#1a1a1a" stroke-linecap="round" stroke-linejoin="round" stroke-width="3.917" d="M770.66289,991.35066S735.5264,1123.03377,784.50453,1169.76s151.54827,15.22144,190.58881,32.2128,114.99212,43.89437,160.42111,25.48706,24.844-135.223,24.13415-164.2499-22.00466-343.36724-22.00466-343.36724-75.233-83.58886-225.366-47.81221C834.5474,768.69293,770.66289,991.35066,770.66289,991.35066Z"></path><path fill="#fff" stroke="#1a1a1a" stroke-linecap="round" stroke-linejoin="round" stroke-width="3.917" d="M1033.65414,603.20408s-10.2925,49.73515-15.97113,54.337l-60.31768,6.91009s-7.47089,42.29408,81.61252,60.34741c59.62555,12.74353,84.55928-17.462,84.55928-17.462s-11.80191-13.33484-22.80425-23.60046c-3.90405-30.08889-2.83931-71.85933-.70983-80.532s68.14349-69.55842,51.10762-110.62089-106.4742-80.001-121.38058-73.62927-34.78157,58.76182-34.78157,58.76182S966.043,600.0182,1033.65414,603.20408Z"></path><path fill="#54cafa" stroke="#1a1a1a" stroke-linecap="round" stroke-linejoin="round" stroke-width="3.917" d="M1133.18582,715.45206s134.28245,98.90619,118.03059,210.411c-13.142,90.16764-46.84865,228.67551-126.34938,240.71106s-181.716-27.611-253.40858-176.28545C909.78916,956.306,916.17762,948.387,916.17762,948.387s64.59434,63.84893,96.5366,72.34462,124.92972,29.73489,113.57247-93.45253"></path><path fill="#fff" stroke="#1a1a1a" stroke-linecap="round" stroke-linejoin="round" stroke-width="3.917" d="M1066.66114 601.61114s-23.87524 2.86268-33.007 1.59294M995.05725 700.90445s1.59711-35.57568-2.39567-56.81489c-.53237-8.49569 1.06474-10.08863 6.65463-7.9647-.26618-13.80549-5.05752-38.76156 9.05031-37.96509s36.7336 13.54 36.46741 28.93842 6.12227 44.33685-9.58268 58.67332-14.10783 27.34549-14.10783 27.34549z"></path><path fill="#54cafa" stroke="#1a1a1a" stroke-linecap="round" stroke-linejoin="round" stroke-width="3.917" d="M957.36533,664.45115c-18.11606,3.96227-56.97774,4.46145-84.13092,19.98734-89.6729,51.274-215.23409,171.91975-155.09879,301.60237,52.52727,113.27579,216.49752,2.12392,269.73462-125.31135,0,0,31.94226-65.48757,39.04054-147.61251-2.12949-6.37177-31.94226-20.17726-39.04054-16.63739s-28.748,31.50483-37.79834,45.8413-77.72616,113.0988-102.21522,112.56782"></path><path fill="#1c0311" stroke="#1a1a1a" stroke-linecap="round" stroke-linejoin="round" stroke-width="1.959" d="M1023.71655,468.51208s-29.81277,22.65516-48.2683,6.37177-20.585-84.95685,31.58734-90.62064c32.29717-5.3098,56.43132,16.2834,56.43132,16.2834s36.55614-54.16,77.72617-23.00915,30.5226,66.54953,19.87518,80.001,8.51793,18.7613,37.62088,29.38091,28.0382,69.02743-15.2613,68.31946c-17.03587,2.83189-1.41966,21.5932,12.422,43.89437s.99814,50.26613-41.91315,41.41646-60.13337-44.95633-62.87958-53.098c16.06423-17.69934,14.28966-44.95633,10.0307-50.26613,24.13415,5.3098,36.20122-15.22143,34.78157-26.195s-21.29484-34.69071-46.84865-13.09751c-27.68329-17.69934-49.688-40.00051-51.10761-49.91215C1030.105,467.45012,1023.71655,468.51208,1023.71655,468.51208Z"></path><circle cx="2650.152" cy="1419.218" r="56.551" fill="#1c0311" stroke="#1a1a1a" stroke-linecap="round" stroke-linejoin="round" stroke-width="1.959"></circle><circle cx="2754.867" cy="1234.912" r="29.321" fill="none" stroke="#1a1a1a" stroke-linecap="round" stroke-linejoin="round" stroke-width="5.876"></circle><circle cx="2182.662" cy="627.842" r="107.964" fill="#fff" stroke="#1a1a1a" stroke-linecap="round" stroke-linejoin="round" stroke-width="3.917"></circle><path fill="#1c0311" stroke="#1a1a1a" stroke-linecap="round" stroke-linejoin="round" stroke-width="1.959" d="M2248.10592,678.31669l-46.67065-46.67017a10.22192,10.22192,0,0,0-2.36764-1.7878,46.15079,46.15079,0,1,0-15.11787,14.64713,11.04548,11.04548,0,0,0,1.96028,2.666l46.66988,46.67027a10.97833,10.97833,0,1,0,15.526-15.52542Zm-58.82436-48.97551a38.00517,38.00517,0,1,1,8.95448-24.4956A37.87718,37.87718,0,0,1,2189.28156,629.34118Z"></path><path fill="none" stroke="#1a1a1a" stroke-dasharray="23.503" stroke-linecap="round" stroke-linejoin="round" stroke-width="3.917" d="M1074.3059,1317.3312s-64.13921,253.37555-209.64108,392.99911S565.979,2401.467,565.979,2401.467"></path><path fill="#fff" stroke="#1a1a1a" stroke-linecap="round" stroke-linejoin="round" stroke-width="3.917" d="M978.85505 1282.47053s-25.13224 73.65745 23.03789 123.00305M317.13268 1853.95446c0 1.52828.0627 3.025.15733 4.52194a68.79336 68.79336 0 1153.74359-65.78093A61.75485 61.75485 0 00317.13268 1853.95446z"></path><path fill="#1c0311" stroke="#1a1a1a" stroke-linecap="round" stroke-linejoin="round" stroke-width="1.959" d="M440.65888,1853.95446A61.76747,61.76747,0,0,1,317.29,1858.4764a68.82532,68.82532,0,0,0,53.74359-65.78093,61.751,61.751,0,0,1,69.62528,61.259Z"></path><polygon fill="#fff" stroke="#1a1a1a" stroke-linecap="round" stroke-linejoin="round" stroke-width="3.917" points="1842.797 525.231 1842.797 541.164 1771.279 649.127 1928.819 649.127 1850.049 540.824 1850.049 525.231 1842.797 525.231"></polygon><line x1="1846.013" x2="1846.013" y1="309.512" y2="523.602" fill="#fff" stroke="#1a1a1a" stroke-linecap="round" stroke-linejoin="round" stroke-width="3.917"></line><polygon fill="#fff" stroke="#1a1a1a" stroke-linecap="round" stroke-linejoin="round" stroke-width="3.917" points="2471.028 525.231 2471.028 541.164 2399.51 649.127 2557.05 649.127 2478.28 540.824 2478.28 525.231 2471.028 525.231"></polygon><line x1="2474.243" x2="2474.243" y1="309.512" y2="523.602" fill="#fff" stroke="#1a1a1a" stroke-linecap="round" stroke-linejoin="round" stroke-width="3.917"></line><circle cx="233.473" cy="1451.159" r="103.939" fill="#fff" stroke="#1a1a1a" stroke-linecap="round" stroke-linejoin="round" stroke-width="3.917"></circle><path fill="#fff" stroke="#1a1a1a" stroke-linecap="round" stroke-linejoin="round" stroke-width="3.917" d="M233.47446,1508.72825s-88.94418-43.985-58.598-87.2758c29.51843-42.09747,58.59805,8.1954,58.59805,8.1954s29.07962-50.29287,58.59806-8.1954C322.40675,1464.74329,233.47446,1508.72825,233.47446,1508.72825Z"></path><rect width="3000" height="3000" fill="none"></rect></g></g></svg>